<svg id="Capa_1" enable-background="new 0 0 512 512" height="512" viewBox="0 0 512 512" width="512" xmlns="http://www.w3.org/2000/svg"><g><path d="m435.472 493.582c0 6.03-4.888 10.919-10.919 10.919h-337.107c-6.03 0-10.919-4.888-10.919-10.919v-447.552c0-6.03 4.888-10.919 10.919-10.919h337.107c6.03 0 10.919 4.888 10.919 10.919z" fill="#f68157"/><path d="m104.139 62.722h303.722v414.167h-303.722z" fill="#f9f7f8"/><path d="m367.86 62.722v331.078c0 34.843-28.245 63.088-63.088 63.088h-200.633v20.001h303.722v-414.167z" fill="#dff6fd"/><path d="m337.639 21.306h-61.398c-.443 0-.831-.277-.994-.69-3.03-7.676-10.494-13.116-19.247-13.116s-16.217 5.44-19.247 13.116c-.163.412-.551.69-.994.69h-61.398c-.66 0-1.194.535-1.194 1.194v48.766c0 10.53 8.537 19.067 19.067 19.067h127.533c10.53 0 19.067-8.537 19.067-19.067v-48.766c-.001-.66-.535-1.194-1.195-1.194z" fill="#c5d3dd"/><path d="m200.778 123.945h110.444v55.222h-110.444z" fill="#fdb441"/><path d="m200.778 206.778h110.444v55.222h-110.444z" fill="#f68157"/><path d="m200.778 289.611h110.444v55.222h-110.444z" fill="#8ac9fe"/><path d="m222.273 372.445h69.822v69.028h-69.822z" fill="#6fd7a3"/><path d="m200.778 70.222h110.444c4.142 0 7.5-3.358 7.5-7.5s-3.358-7.5-7.5-7.5h-110.444c-4.142 0-7.5 3.358-7.5 7.5s3.358 7.5 7.5 7.5z"/><path d="m325.028 226.889h-6.306v-20.111c0-4.142-3.358-7.5-7.5-7.5h-110.444c-4.142 0-7.5 3.358-7.5 7.5v9.504l-7.905-7.905c-2.929-2.929-7.678-2.929-10.606 0-2.929 2.929-2.929 7.678 0 10.606l7.592 7.592c-16.527-2.258-29.302-16.466-29.302-33.603 0-18.702 15.215-33.917 33.917-33.917h6.306v20.111c0 4.142 3.358 7.5 7.5 7.5h110.444c4.142 0 7.5-3.358 7.5-7.5v-55.222c0-4.142-3.358-7.5-7.5-7.5h-110.446c-4.142 0-7.5 3.358-7.5 7.5v20.111h-6.306c-26.973 0-48.917 21.944-48.917 48.917 0 25.583 19.741 46.641 44.789 48.743l-8.079 8.079c-2.929 2.929-2.929 7.678 0 10.606 2.929 2.929 7.678 2.929 10.606 0l7.905-7.905v9.505c0 4.142 3.358 7.5 7.5 7.5h12.694c4.142 0 7.5-3.358 7.5-7.5s-3.358-7.5-7.5-7.5h-5.194v-40.222h95.444v40.222h-55.249c-4.142 0-7.5 3.358-7.5 7.5s3.358 7.5 7.5 7.5h62.749c4.142 0 7.5-3.358 7.5-7.5v-20.111h6.306c18.702 0 33.917 15.215 33.917 33.917 0 17.137-12.776 31.346-29.303 33.603l7.592-7.592c2.929-2.929 2.929-7.678 0-10.606-2.929-2.929-7.678-2.929-10.606 0l-7.905 7.905v-9.505c0-4.142-3.358-7.5-7.5-7.5h-110.443c-4.142 0-7.5 3.358-7.5 7.5v20.111h-6.306c-26.973 0-48.917 21.944-48.917 48.917s21.944 48.917 48.917 48.917h16.407l-7.905 7.905c-2.929 2.929-2.929 7.677 0 10.606 2.928 2.929 7.677 2.929 10.606 0l8.692-8.692v24.097c0 4.142 3.358 7.5 7.5 7.5h69.822c4.142 0 7.5-3.358 7.5-7.5v-55.278l16.93-16.93c2.929-2.929 2.929-7.678 0-10.606-2.929-2.929-7.678-2.929-10.606 0l-8.502 8.502c-1.359-1.368-3.241-2.216-5.322-2.216h-69.822c-4.142 0-7.5 3.358-7.5 7.5v10.292l-8.692-8.692c-2.929-2.929-7.678-2.929-10.606 0-2.929 2.929-2.929 7.678 0 10.606l7.905 7.905h-16.408c-18.702 0-33.917-15.215-33.917-33.917s15.215-33.917 33.917-33.917h6.306v20.111c0 4.142 3.358 7.5 7.5 7.5h110.444c4.142 0 7.5-3.358 7.5-7.5v-9.504l7.905 7.905c2.929 2.929 7.678 2.929 10.606 0 2.929-2.929 2.929-7.678 0-10.606l-8.079-8.079c25.049-2.102 44.79-23.16 44.79-48.744.002-26.971-21.942-48.915-48.915-48.915zm-116.75-95.444h95.444v40.222h-95.444zm21.495 248.5h54.822v.037l-23.273 23.273-12.545-12.545c-2.929-2.929-7.678-2.929-10.606 0-2.929 2.929-2.929 7.678 0 10.606l17.849 17.849c2.929 2.929 7.678 2.929 10.606 0l17.97-17.97v32.778h-54.822v-54.028zm-21.495-42.612v-40.222h95.444v40.222z"/><path d="m424.554 27.611h-78.22v-5.111c0-4.794-3.9-8.694-8.694-8.694h-57.397c-5.021-8.51-14.121-13.806-24.243-13.806s-19.221 5.295-24.242 13.806h-9.593c-4.142 0-7.5 3.358-7.5 7.5s3.358 7.5 7.5 7.5h13.595c3.539 0 6.667-2.134 7.97-5.436 2.006-5.085 6.823-8.37 12.27-8.37s10.264 3.285 12.27 8.369c1.303 3.303 4.432 5.437 7.971 5.437h55.093v42.46c0 6.378-5.189 11.567-11.567 11.567h-127.533c-6.378 0-11.567-5.189-11.567-11.567v-42.46h6.496c4.142 0 7.5-3.358 7.5-7.5s-3.358-7.5-7.5-7.5h-12.802c-4.794 0-8.694 3.9-8.694 8.694v5.111h-78.221c-10.156 0-18.418 8.263-18.418 18.418v447.552c0 10.156 8.263 18.418 18.418 18.418h337.107c10.156 0 18.418-8.263 18.418-18.418v-447.551c.001-10.156-8.262-18.419-18.417-18.419zm3.418 465.971c0 1.885-1.534 3.418-3.418 3.418h-337.108c-1.885 0-3.418-1.534-3.418-3.418v-447.552c0-1.885 1.534-3.418 3.418-3.418h78.221v12.611h-61.528c-4.142 0-7.5 3.358-7.5 7.5v414.167c0 4.142 3.358 7.5 7.5 7.5h303.722c4.142 0 7.5-3.358 7.5-7.5v-343.22c0-4.142-3.358-7.5-7.5-7.5s-7.5 3.358-7.5 7.5v335.719h-288.722v-399.167h54.028v1.044c0 14.649 11.918 26.567 26.567 26.567h127.533c14.649 0 26.567-11.918 26.567-26.567v-1.044h54.028v28.447c0 4.142 3.358 7.5 7.5 7.5s7.5-3.358 7.5-7.5v-35.947c0-4.142-3.358-7.5-7.5-7.5h-61.528v-12.611h78.22c1.885 0 3.418 1.534 3.418 3.418z"/></g></svg>