<?xml version="1.0" encoding="UTF-8" standalone="no"?>
<!-- Created with Inkscape (http://www.inkscape.org/) -->

<svg
   version="1.1"
   id="svg6420"
   xml:space="preserve"
   width="682.66669"
   height="682.66669"
   viewBox="0 0 682.66669 682.66669"
   xmlns="http://www.w3.org/2000/svg"
   xmlns:svg="http://www.w3.org/2000/svg"><defs
     id="defs6424"><clipPath
       clipPathUnits="userSpaceOnUse"
       id="clipPath6434"><path
         d="M 0,512 H 512 V 0 H 0 Z"
         id="path6432" /></clipPath></defs><g
     id="g6426"
     transform="matrix(1.3333333,0,0,-1.3333333,0,682.66667)"><g
       id="g6428"><g
         id="g6430"
         clip-path="url(#clipPath6434)"><g
           id="g6436"
           transform="translate(7.5,28.1387)"><path
             d="m 0,0 v 445.019 c 0,7.061 5.724,12.785 12.785,12.785 H 280.34 c 7.061,0 12.786,-5.724 12.786,-12.785 L 293.126,0 c 0,-7.062 -5.725,-12.785 -12.786,-12.785 H 12.785 C 5.724,-12.785 0,-7.062 0,0"
             style="fill:#4980ac;fill-opacity:1;fill-rule:nonzero;stroke:none"
             id="path6438" /></g><g
           id="g6440"
           transform="translate(7.5,157.6455)"><path
             d="m 0,0 v 315.512 c 0,7.061 5.724,12.785 12.785,12.785 H 280.34 c 7.061,0 12.786,-5.724 12.786,-12.785 v -445.019 c 0,-7.061 -5.725,-12.785 -12.786,-12.785 H 12.785 C 5.724,-142.292 0,-136.568 0,-129.507 V -35"
             style="fill:none;stroke:#000000;stroke-width:15;stroke-linecap:round;stroke-linejoin:round;stroke-miterlimit:10;stroke-dasharray:none;stroke-opacity:1"
             id="path6442" /></g><g
           id="g6444"
           transform="translate(216.4468,446.0225)"><path
             d="m 0,0 -20.427,-22.167 c -2.421,-2.627 -5.83,-4.121 -9.403,-4.121 h -65.108 c -3.572,0 -6.981,1.494 -9.402,4.121 L -124.767,0 c -2.421,2.627 -5.83,4.121 -9.402,4.121 h -32.586 c -3.531,0 -6.392,-2.862 -6.392,-6.392 v -386.207 c 0,-3.53 2.861,-6.392 6.392,-6.392 H 48.38 V 4.121 H 9.402 C 5.83,4.121 2.42,2.627 0,0"
             style="fill:#edf6ff;fill-opacity:1;fill-rule:nonzero;stroke:none"
             id="path6446" /></g><g
           id="g6448"
           transform="translate(43.2993,91.2773)"><path
             d="m 0,0 v -33.732 c 0,-3.532 2.862,-6.393 6.393,-6.393 H 221.528 V -6.393 H 6.393 C 2.862,-6.393 0,-3.53 0,0"
             style="fill:#ddebfd;fill-opacity:1;fill-rule:nonzero;stroke:none"
             id="path6450" /></g><g
           id="g6452"
           transform="translate(216.4468,446.0225)"><path
             d="m 0,0 -20.427,-22.167 c -2.421,-2.627 -5.83,-4.121 -9.403,-4.121 h -65.108 c -3.572,0 -6.981,1.494 -9.402,4.121 L -124.767,0 c -2.421,2.627 -5.83,4.121 -9.402,4.121 h -32.586 c -3.531,0 -6.392,-2.862 -6.392,-6.392 v -386.207 c 0,-3.53 2.861,-6.392 6.392,-6.392 H 48.38 V 4.121 H 9.402 C 5.83,4.121 2.42,2.627 0,0 Z"
             style="fill:none;stroke:#000000;stroke-width:15;stroke-linecap:round;stroke-linejoin:round;stroke-miterlimit:10;stroke-dasharray:none;stroke-opacity:1"
             id="path6454" /></g><g
           id="g6456"
           transform="translate(153.4238,452.5303)"><path
             d="M 0,0 H 1.279"
             style="fill:none;stroke:#000000;stroke-width:15;stroke-linecap:round;stroke-linejoin:round;stroke-miterlimit:10;stroke-dasharray:none;stroke-opacity:1"
             id="path6458" /></g><g
           id="g6460"
           transform="translate(489.3682,80.1641)"><path
             d="m 0,0 c -70.574,30.675 -156.349,21.004 -224.541,-29.012 v 398.991 c 71.165,52.196 161.477,60.454 233.68,24.772 3.682,-1.819 5.993,-5.598 5.993,-9.706 V 9.95 C 15.132,2.156 7.148,-3.106 0,0"
             style="fill:#ddebfd;fill-opacity:1;fill-rule:nonzero;stroke:none"
             id="path6462" /></g><g
           id="g6464"
           transform="translate(489.3682,113.8975)"><path
             d="m 0,0 c -70.574,30.675 -156.349,21.003 -224.541,-29.013 v -33.732 c 68.192,50.016 153.967,59.686 224.541,29.012 7.148,-3.107 15.132,2.156 15.132,9.95 V 9.95 C 15.132,2.156 7.147,-3.106 0,0"
             style="fill:#bed9fd;fill-opacity:1;fill-rule:nonzero;stroke:none"
             id="path6466" /></g><g
           id="g6468"
           transform="translate(504.5,397.8887)"><path
             d="m 0,0 v -307.774 c 0,-7.794 -7.983,-13.057 -15.132,-9.951 -70.574,30.675 -156.348,21.004 -224.541,-29.011 V 52.255 c 71.165,52.195 161.477,60.453 233.68,24.771 C -2.311,75.207 0,71.429 0,67.32 V 35"
             style="fill:none;stroke:#000000;stroke-width:15;stroke-linecap:round;stroke-linejoin:round;stroke-miterlimit:10;stroke-dasharray:none;stroke-opacity:1"
             id="path6470" /></g><g
           id="g6472"
           transform="translate(306.0996,393.3496)"><path
             d="M 0,0 C 50.61,23.631 106.511,28.261 157.131,13.881"
             style="fill:none;stroke:#000000;stroke-width:15;stroke-linecap:round;stroke-linejoin:round;stroke-miterlimit:10;stroke-dasharray:none;stroke-opacity:1"
             id="path6474" /></g><g
           id="g6476"
           transform="translate(306.0996,337.9805)"><path
             d="M 0,0 C 50.61,23.619 106.511,28.25 157.131,13.869"
             style="fill:none;stroke:#000000;stroke-width:15;stroke-linecap:round;stroke-linejoin:round;stroke-miterlimit:10;stroke-dasharray:none;stroke-opacity:1"
             id="path6478" /></g><g
           id="g6480"
           transform="translate(306.0996,282.6104)"><path
             d="M 0,0 C 50.61,23.62 106.521,28.239 157.131,13.859"
             style="fill:none;stroke:#000000;stroke-width:15;stroke-linecap:round;stroke-linejoin:round;stroke-miterlimit:10;stroke-dasharray:none;stroke-opacity:1"
             id="path6482" /></g><g
           id="g6484"
           transform="translate(154.063,329.7402)"><path
             d="m 0,0 c -43.682,0 -79.092,-35.411 -79.092,-79.093 0,-43.68 35.41,-79.092 79.092,-79.092 43.682,0 79.093,35.412 79.093,79.092 C 79.093,-35.411 43.682,0 0,0"
             style="fill:#ebb34c;fill-opacity:1;fill-rule:nonzero;stroke:none"
             id="path6486" /></g><g
           id="g6488"
           transform="translate(306.0996,227.2305)"><path
             d="M 0,0 C 25.306,11.81 51.933,18.872 78.562,21.185"
             style="fill:none;stroke:#000000;stroke-width:15;stroke-linecap:round;stroke-linejoin:round;stroke-miterlimit:10;stroke-dasharray:none;stroke-opacity:1"
             id="path6490" /></g><g
           id="g6492"
           transform="translate(152.6484,291.8477)"><path
             d="M 0,0 H 2.83"
             style="fill:none;stroke:#000000;stroke-width:15;stroke-linecap:round;stroke-linejoin:round;stroke-miterlimit:10;stroke-dasharray:none;stroke-opacity:1"
             id="path6494" /></g><g
           id="g6496"
           transform="translate(154.063,262.5967)"><path
             d="M 0,0 V -53.148"
             style="fill:none;stroke:#000000;stroke-width:15;stroke-linecap:round;stroke-linejoin:round;stroke-miterlimit:10;stroke-dasharray:none;stroke-opacity:1"
             id="path6498" /></g><g
           id="g6500"
           transform="translate(142.936,209.4482)"><path
             d="M 0,0 H 22.254"
             style="fill:none;stroke:#000000;stroke-width:15;stroke-linecap:round;stroke-linejoin:round;stroke-miterlimit:10;stroke-dasharray:none;stroke-opacity:1"
             id="path6502" /></g><g
           id="g6504"
           transform="translate(154.063,262.5967)"><path
             d="M 0,0 H -9.829"
             style="fill:none;stroke:#000000;stroke-width:15;stroke-linecap:round;stroke-linejoin:round;stroke-miterlimit:10;stroke-dasharray:none;stroke-opacity:1"
             id="path6506" /></g><g
           id="g6508"
           transform="translate(461.335,52.8496)"><path
             d="m 0,0 -43.649,43.649 c -1.446,1.446 -1.446,3.789 0,5.236 l 23.261,23.261 c 3.029,3.029 0.884,8.208 -3.4,8.208 h -80.856 c -6.048,0 -10.952,-4.905 -10.952,-10.954 v -80.855 c 0,-4.283 5.178,-6.429 8.207,-3.399 l 23.261,23.26 c 1.446,1.447 3.79,1.447 5.235,0 l 43.65,-43.649 c 3.005,-3.005 7.877,-3.005 10.882,0 L 0,-10.882 C 3.005,-7.877 3.005,-3.005 0,0"
             style="fill:#62a4fb;fill-opacity:1;fill-rule:nonzero;stroke:none"
             id="path6510" /></g><g
           id="g6512"
           transform="translate(461.335,52.8496)"><path
             d="m 0,0 -43.649,43.649 c -1.446,1.446 -1.446,3.789 0,5.236 l 23.261,23.261 c 3.029,3.029 0.884,8.208 -3.4,8.208 h -80.856 c -6.048,0 -10.952,-4.905 -10.952,-10.954 v -80.855 c 0,-4.283 5.178,-6.429 8.207,-3.399 l 23.261,23.26 c 1.446,1.447 3.79,1.447 5.235,0 l 43.65,-43.649 c 3.005,-3.005 7.877,-3.005 10.882,0 L 0,-10.882 C 3.005,-7.877 3.005,-3.005 0,0 Z"
             style="fill:none;stroke:#000000;stroke-width:15;stroke-linecap:round;stroke-linejoin:round;stroke-miterlimit:10;stroke-dasharray:none;stroke-opacity:1"
             id="path6514" /></g><g
           id="g6516"
           transform="translate(154.063,329.7402)"><path
             d="m 0,0 c -43.682,0 -79.092,-35.411 -79.092,-79.093 0,-43.68 35.41,-79.092 79.092,-79.092 43.682,0 79.093,35.412 79.093,79.092 C 79.093,-35.411 43.682,0 0,0 Z"
             style="fill:none;stroke:#000000;stroke-width:15;stroke-linecap:round;stroke-linejoin:round;stroke-miterlimit:10;stroke-dasharray:none;stroke-opacity:1"
             id="path6518" /></g></g></g></g></svg>
