<svg xmlns="http://www.w3.org/2000/svg" width="1240" height="60" viewBox="0 0 1240 60">
  <g id="Grupo_83888" data-name="Grupo 83888" transform="translate(-180 -727)">
    <path id="Trazado_113525" data-name="Trazado 113525" d="M0,0H190l20,29.5L190,60H0Z" transform="translate(180 727)" fill="#7e5ee3"/>
    <path id="Trazado_113526" data-name="Trazado 113526" d="M0,0H190l20,30L190,60H0L15,30Z" transform="translate(390 727)" fill="#81d4fa"/>
    <path id="Trazado_113529" data-name="Trazado 113529" d="M0,0H190l20,30L190,60H0L15,30Z" transform="translate(810 727)" fill="#81d4fa"/>
    <path id="Trazado_113527" data-name="Trazado 113527" d="M0,0H190l20,30L190,60H0L15,30Z" transform="translate(600 727)" fill="#81d4fa"/>
    <path id="Trazado_113528" data-name="Trazado 113528" d="M0,0H190l20,30L190,60H0L15,30Z" transform="translate(1020 727)" fill="#81d4fa"/>
    <path id="Trazado_113530" data-name="Trazado 113530" d="M0,0H190V60H0L15,30Z" transform="translate(1230 727)" fill="#81d4fa"/>
    <path id="Trazado_114567" data-name="Trazado 114567" d="M-35.309-2.984A1.2,1.2,0,0,0-35.777-4a6.148,6.148,0,0,0-1.687-.75,11.962,11.962,0,0,1-1.93-.777,3.153,3.153,0,0,1-1.937-2.82A2.747,2.747,0,0,1-40.812-10a3.389,3.389,0,0,1,1.492-1.129,5.616,5.616,0,0,1,2.184-.406,5.112,5.112,0,0,1,2.172.441,3.458,3.458,0,0,1,1.48,1.246,3.261,3.261,0,0,1,.527,1.828H-35.3a1.534,1.534,0,0,0-.492-1.215,2.023,2.023,0,0,0-1.383-.434,2.162,2.162,0,0,0-1.336.363,1.146,1.146,0,0,0-.477.957,1.1,1.1,0,0,0,.559.93,6.311,6.311,0,0,0,1.645.7,7.106,7.106,0,0,1,2.914,1.492A2.972,2.972,0,0,1-32.957-3,2.737,2.737,0,0,1-34.074-.684a4.891,4.891,0,0,1-3.008.84,5.808,5.808,0,0,1-2.391-.48,3.783,3.783,0,0,1-1.645-1.316,3.371,3.371,0,0,1-.566-1.937h2.352q0,1.883,2.25,1.883a2.189,2.189,0,0,0,1.3-.34A1.106,1.106,0,0,0-35.309-2.984ZM-24.527-4.93h-4.5v3.047h5.281V0h-7.625V-11.375h7.609v1.9h-5.266v2.711h4.5Zm4.5,3.047h4.977V0h-7.32V-11.375h2.344ZM-6.863-4.93h-4.5v3.047h5.281V0h-7.625V-11.375H-6.1v1.9h-5.266v2.711h4.5ZM4.223-3.789A4.025,4.025,0,0,1,2.867-.9,4.76,4.76,0,0,1-.355.156,4.28,4.28,0,0,1-3.8-1.316,6.038,6.038,0,0,1-5.051-5.359v-.7a6.819,6.819,0,0,1,.578-2.891A4.332,4.332,0,0,1-2.82-10.863a4.629,4.629,0,0,1,2.5-.668,4.637,4.637,0,0,1,3.172,1.055A4.326,4.326,0,0,1,4.238-7.516H1.895a2.376,2.376,0,0,0-.613-1.6,2.271,2.271,0,0,0-1.605-.5,1.991,1.991,0,0,0-1.754.84,4.707,4.707,0,0,0-.6,2.605V-5.3a5.038,5.038,0,0,0,.559,2.7,1.954,1.954,0,0,0,1.762.852,2.314,2.314,0,0,0,1.621-.5,2.241,2.241,0,0,0,.613-1.535Zm10.469,0A4.025,4.025,0,0,1,13.336-.9,4.76,4.76,0,0,1,10.113.156,4.28,4.28,0,0,1,6.672-1.316,6.038,6.038,0,0,1,5.418-5.359v-.7A6.819,6.819,0,0,1,6-8.945a4.332,4.332,0,0,1,1.652-1.918,4.629,4.629,0,0,1,2.5-.668,4.637,4.637,0,0,1,3.172,1.055,4.326,4.326,0,0,1,1.391,2.961H12.363a2.376,2.376,0,0,0-.613-1.6,2.271,2.271,0,0,0-1.605-.5,1.991,1.991,0,0,0-1.754.84,4.707,4.707,0,0,0-.6,2.605V-5.3a5.038,5.038,0,0,0,.559,2.7,1.954,1.954,0,0,0,1.762.852,2.314,2.314,0,0,0,1.621-.5,2.241,2.241,0,0,0,.613-1.535ZM18.723,0H16.379V-11.375h2.344ZM30.238-5.43a6.867,6.867,0,0,1-.594,2.945,4.472,4.472,0,0,1-1.7,1.953A4.7,4.7,0,0,1,25.41.156a4.732,4.732,0,0,1-2.523-.68,4.515,4.515,0,0,1-1.719-1.941,6.67,6.67,0,0,1-.617-2.9V-5.93a6.831,6.831,0,0,1,.605-2.957,4.508,4.508,0,0,1,1.711-1.961,4.706,4.706,0,0,1,2.527-.684,4.706,4.706,0,0,1,2.527.684,4.508,4.508,0,0,1,1.711,1.961,6.811,6.811,0,0,1,.605,2.949Zm-2.375-.516a4.787,4.787,0,0,0-.641-2.719,2.088,2.088,0,0,0-1.828-.93,2.088,2.088,0,0,0-1.82.918,4.732,4.732,0,0,0-.648,2.691v.555a4.847,4.847,0,0,0,.641,2.7,2.082,2.082,0,0,0,1.844.961,2.064,2.064,0,0,0,1.813-.926,4.819,4.819,0,0,0,.641-2.7Zm-2.016-8.477h2.461L26.145-12H24.309ZM41.191,0H38.848L34.285-7.484V0H31.941V-11.375h2.344l4.57,7.5v-7.5h2.336Z" transform="translate(275 762.863)" fill="#fff"/>
    <path id="Trazado_114568" data-name="Trazado 114568" d="M-41.234-2.977H-46L-47.07,0h-1.547l4.344-11.375h1.313L-38.609,0h-1.539ZM-45.547-4.2h3.867l-1.937-5.32ZM-37.078,0V-11.375h3.211a5.169,5.169,0,0,1,2.625.656A4.438,4.438,0,0,1-29.48-8.852a6.078,6.078,0,0,1,.629,2.781v.727a6.1,6.1,0,0,1-.621,2.82A4.369,4.369,0,0,1-31.246-.664,5.5,5.5,0,0,1-33.93,0Zm1.5-10.148v8.922H-34a3.434,3.434,0,0,0,2.7-1.079,4.458,4.458,0,0,0,.965-3.073v-.665a4.529,4.529,0,0,0-.91-3.014,3.239,3.239,0,0,0-2.582-1.091ZM-17.9-5.32a7.026,7.026,0,0,1-.523,2.84A4.388,4.388,0,0,1-19.891-.617L-17.859.977l-1.023.945-2.4-1.906a4.88,4.88,0,0,1-1.187.141A4.347,4.347,0,0,1-24.852-.5a4.363,4.363,0,0,1-1.613-1.883,6.752,6.752,0,0,1-.59-2.832v-.82a6.953,6.953,0,0,1,.57-2.9,4.347,4.347,0,0,1,1.613-1.926,4.329,4.329,0,0,1,2.387-.668,4.4,4.4,0,0,1,2.418.664,4.284,4.284,0,0,1,1.605,1.91,7.016,7.016,0,0,1,.563,2.91Zm-1.5-.734a5.162,5.162,0,0,0-.8-3.1,2.666,2.666,0,0,0-2.285-1.09,2.643,2.643,0,0,0-2.23,1.082,5,5,0,0,0-.84,3v.836a5.147,5.147,0,0,0,.816,3.078,2.646,2.646,0,0,0,2.27,1.125,2.652,2.652,0,0,0,2.25-1.059,5.079,5.079,0,0,0,.82-3.035Zm11.82-5.32v7.734A3.628,3.628,0,0,1-8.59-1.008,4.077,4.077,0,0,1-11.312.141l-.4.016A4.258,4.258,0,0,1-14.687-.852a3.6,3.6,0,0,1-1.125-2.773v-7.75h1.484v7.7a2.6,2.6,0,0,0,.68,1.918,2.612,2.612,0,0,0,1.938.684,2.63,2.63,0,0,0,1.949-.68,2.6,2.6,0,0,0,.676-1.914v-7.711ZM-3.6,0H-5.1V-11.375h1.5ZM2.492-5.07A7.053,7.053,0,0,1-.316-6.434a2.6,2.6,0,0,1-.879-2A2.751,2.751,0,0,1-.121-10.652a4.269,4.269,0,0,1,2.793-.879,4.66,4.66,0,0,1,2.09.453,3.436,3.436,0,0,1,1.422,1.25,3.2,3.2,0,0,1,.5,1.742H5.18a2.08,2.08,0,0,0-.656-1.627A2.669,2.669,0,0,0,2.672-10.3a2.732,2.732,0,0,0-1.73.489A1.632,1.632,0,0,0,.32-8.458,1.468,1.468,0,0,0,.91-7.28a5.785,5.785,0,0,0,2.008.88,9.316,9.316,0,0,1,2.219.88A3.367,3.367,0,0,1,6.324-4.4a2.861,2.861,0,0,1,.387,1.508A2.658,2.658,0,0,1,5.633-.676,4.6,4.6,0,0,1,2.75.156,5.347,5.347,0,0,1,.563-.293,3.681,3.681,0,0,1-1-1.523,3,3,0,0,1-1.555-3.3H-.047A1.959,1.959,0,0,0,.715-1.668a3.207,3.207,0,0,0,2.035.6,2.948,2.948,0,0,0,1.82-.484A1.573,1.573,0,0,0,5.2-2.875a1.545,1.545,0,0,0-.586-1.293A6.755,6.755,0,0,0,2.492-5.07ZM10.242,0h-1.5V-11.375h1.5ZM21.352-3.609A4.185,4.185,0,0,1,20.02-.824a4.365,4.365,0,0,1-2.98.98,4.008,4.008,0,0,1-3.23-1.445,5.815,5.815,0,0,1-1.215-3.867V-6.25a6.481,6.481,0,0,1,.566-2.789,4.231,4.231,0,0,1,1.605-1.848,4.47,4.47,0,0,1,2.406-.645,4.11,4.11,0,0,1,2.906,1.012,4.235,4.235,0,0,1,1.273,2.8H19.844A3.268,3.268,0,0,0,19-9.693a2.565,2.565,0,0,0-1.824-.611,2.684,2.684,0,0,0-2.254,1.063A4.882,4.882,0,0,0,14.1-6.215v1.1a5.018,5.018,0,0,0,.773,2.948A2.5,2.5,0,0,0,17.039-1.07a2.886,2.886,0,0,0,1.918-.566,3.143,3.143,0,0,0,.887-1.973ZM25.008,0h-1.5V-11.375h1.5ZM36.5-5.32A7.037,7.037,0,0,1,35.938-2.4,4.261,4.261,0,0,1,34.344-.5a4.385,4.385,0,0,1-2.406.656A4.347,4.347,0,0,1,29.555-.5a4.363,4.363,0,0,1-1.613-1.883,6.752,6.752,0,0,1-.59-2.832v-.82a6.953,6.953,0,0,1,.57-2.9,4.347,4.347,0,0,1,1.613-1.926,4.329,4.329,0,0,1,2.387-.668,4.41,4.41,0,0,1,2.41.66,4.253,4.253,0,0,1,1.605,1.914A7.071,7.071,0,0,1,36.5-6.039Zm-1.492-.734A5.1,5.1,0,0,0,34.2-9.16a2.68,2.68,0,0,0-2.273-1.082A2.651,2.651,0,0,0,29.684-9.16a5,5,0,0,0-.84,3v.836a5.107,5.107,0,0,0,.824,3.082,2.662,2.662,0,0,0,2.27,1.121,2.652,2.652,0,0,0,2.25-1.059,5.079,5.079,0,0,0,.82-3.035Zm-2.352-8.383h1.75l-2.094,2.3-1.164,0ZM47.492,0H45.984L40.258-8.766V0H38.75V-11.375h1.508L46-2.57v-8.8h1.492Z" transform="translate(495 762.863)" fill="#12263f"/>
    <path id="Trazado_114569" data-name="Trazado 114569" d="M-37.367-4.6h-2.672V0h-1.508V-11.375h3.766a4.457,4.457,0,0,1,2.957.875,3.148,3.148,0,0,1,1.035,2.547A3.062,3.062,0,0,1-34.363-6.1a3.428,3.428,0,0,1-1.6,1.18l2.672,4.828V0H-34.9Zm-2.672-1.227h2.3a2.6,2.6,0,0,0,1.777-.579,1.959,1.959,0,0,0,.66-1.55,2.062,2.062,0,0,0-.629-1.62,2.663,2.663,0,0,0-1.816-.571h-2.3Zm14.781.57h-4.93v4.031h5.727V0h-7.227V-11.375h7.148v1.227h-5.648v3.664h4.93Zm11.031,1.648A4.185,4.185,0,0,1-15.559-.824a4.365,4.365,0,0,1-2.98.98,4.008,4.008,0,0,1-3.23-1.445,5.815,5.815,0,0,1-1.215-3.867V-6.25a6.481,6.481,0,0,1,.566-2.789,4.231,4.231,0,0,1,1.605-1.848,4.47,4.47,0,0,1,2.406-.645A4.11,4.11,0,0,1-15.5-10.52a4.235,4.235,0,0,1,1.273,2.8h-1.508a3.268,3.268,0,0,0-.848-1.975,2.565,2.565,0,0,0-1.824-.611A2.684,2.684,0,0,0-20.66-9.241a4.882,4.882,0,0,0-.816,3.026v1.1A5.018,5.018,0,0,0-20.7-2.165,2.5,2.5,0,0,0-18.539-1.07a2.886,2.886,0,0,0,1.918-.566,3.143,3.143,0,0,0,.887-1.973ZM-5.75-5.258h-4.93v4.031h5.727V0H-12.18V-11.375h7.148v1.227H-10.68v3.664h4.93Zm4.164.8V0h-1.5V-11.375h4.2a4.215,4.215,0,0,1,2.926.953A3.231,3.231,0,0,1,5.094-7.9,3.189,3.189,0,0,1,4.059-5.348a4.4,4.4,0,0,1-2.965.895Zm0-1.227h2.7a2.7,2.7,0,0,0,1.844-.567,2.075,2.075,0,0,0,.641-1.64,2.143,2.143,0,0,0-.641-1.628A2.525,2.525,0,0,0,1.2-10.148H-1.586Zm16.961,2.07A4.185,4.185,0,0,1,14.043-.824a4.365,4.365,0,0,1-2.98.98,4.008,4.008,0,0,1-3.23-1.445A5.815,5.815,0,0,1,6.617-5.156V-6.25a6.481,6.481,0,0,1,.566-2.789,4.231,4.231,0,0,1,1.605-1.848,4.47,4.47,0,0,1,2.406-.645A4.11,4.11,0,0,1,14.1-10.52a4.235,4.235,0,0,1,1.273,2.8H13.867a3.268,3.268,0,0,0-.848-1.975A2.565,2.565,0,0,0,11.2-10.3,2.684,2.684,0,0,0,8.941-9.241a4.882,4.882,0,0,0-.816,3.026v1.1A5.018,5.018,0,0,0,8.9-2.165,2.5,2.5,0,0,0,11.063-1.07a2.887,2.887,0,0,0,1.918-.566,3.143,3.143,0,0,0,.887-1.973ZM19.031,0h-1.5V-11.375h1.5ZM30.523-5.32A7.037,7.037,0,0,1,29.961-2.4,4.261,4.261,0,0,1,28.367-.5a4.385,4.385,0,0,1-2.406.656A4.347,4.347,0,0,1,23.578-.5a4.363,4.363,0,0,1-1.613-1.883,6.752,6.752,0,0,1-.59-2.832v-.82a6.953,6.953,0,0,1,.57-2.9,4.347,4.347,0,0,1,1.613-1.926,4.329,4.329,0,0,1,2.387-.668,4.41,4.41,0,0,1,2.41.66,4.253,4.253,0,0,1,1.605,1.914,7.071,7.071,0,0,1,.563,2.918Zm-1.492-.734a5.1,5.1,0,0,0-.812-3.105,2.68,2.68,0,0,0-2.273-1.082A2.651,2.651,0,0,0,23.707-9.16a5,5,0,0,0-.84,3v.836a5.107,5.107,0,0,0,.824,3.082,2.662,2.662,0,0,0,2.27,1.121,2.652,2.652,0,0,0,2.25-1.059,5.079,5.079,0,0,0,.82-3.035ZM26.68-14.437h1.75l-2.094,2.3-1.164,0ZM41.516,0H40.008L34.281-8.766V0H32.773V-11.375h1.508l5.742,8.8v-8.8h1.492Z" transform="translate(705 762.863)" fill="#12263f"/>
    <path id="Trazado_114570" data-name="Trazado 114570" d="M-64.359-2.977h-4.766L-70.2,0h-1.547L-67.4-11.375h1.313L-61.734,0h-1.539ZM-68.672-4.2H-64.8l-1.937-5.32ZM-58.7-1.227H-53.3V0h-6.9V-11.375H-58.7Zm9.039-10.148,3.719,9.281,3.719-9.281h1.945V0h-1.5V-4.43l.141-4.781L-45.367,0h-1.148l-3.727-9.187.148,4.758V0h-1.5V-11.375Zm18.453,8.4h-4.766L-37.039,0h-1.547l4.344-11.375h1.313L-28.578,0h-1.539ZM-35.516-4.2h3.867l-1.937-5.32Zm16.75.594A4.185,4.185,0,0,1-20.1-.824a4.365,4.365,0,0,1-2.98.98,4.008,4.008,0,0,1-3.23-1.445,5.815,5.815,0,0,1-1.215-3.867V-6.25a6.481,6.481,0,0,1,.566-2.789,4.231,4.231,0,0,1,1.605-1.848,4.47,4.47,0,0,1,2.406-.645,4.11,4.11,0,0,1,2.906,1.012,4.235,4.235,0,0,1,1.273,2.8h-1.508a3.268,3.268,0,0,0-.848-1.975,2.565,2.565,0,0,0-1.824-.611A2.684,2.684,0,0,0-25.2-9.241a4.882,4.882,0,0,0-.816,3.026v1.1a5.018,5.018,0,0,0,.773,2.948A2.5,2.5,0,0,0-23.078-1.07a2.886,2.886,0,0,0,1.918-.566,3.143,3.143,0,0,0,.887-1.973Zm8.477-1.648h-4.93v4.031h5.727V0h-7.227V-11.375H-9.57v1.227h-5.648v3.664h4.93ZM1.117,0H-.391L-6.117-8.766V0H-7.625V-11.375h1.508l5.742,8.8v-8.8H1.117ZM10.2-2.977H5.438L4.367,0H2.82L7.164-11.375H8.477L12.828,0H11.289ZM5.891-4.2H9.758L7.82-9.523ZM16.3-11.375l3.719,9.281,3.719-9.281H25.68V0h-1.5V-4.43l.141-4.781L20.586,0H19.438L15.711-9.187l.148,4.758V0h-1.5V-11.375ZM29.938,0h-1.5V-11.375h1.5Zm9.172-5.258H34.18v4.031h5.727V0H32.68V-11.375h7.148v1.227H34.18v3.664h4.93ZM50.516,0H49.008L43.281-8.766V0H41.773V-11.375h1.508l5.742,8.8v-8.8h1.492Zm10.3-10.148H57.156V0H55.664V-10.148H52.016v-1.227h8.8ZM71.031-5.32A7.037,7.037,0,0,1,70.469-2.4,4.261,4.261,0,0,1,68.875-.5a4.385,4.385,0,0,1-2.406.656A4.347,4.347,0,0,1,64.086-.5a4.363,4.363,0,0,1-1.613-1.883,6.752,6.752,0,0,1-.59-2.832v-.82a6.953,6.953,0,0,1,.57-2.9,4.347,4.347,0,0,1,1.613-1.926,4.329,4.329,0,0,1,2.387-.668,4.41,4.41,0,0,1,2.41.66,4.253,4.253,0,0,1,1.605,1.914,7.071,7.071,0,0,1,.563,2.918Zm-1.492-.734a5.1,5.1,0,0,0-.812-3.105,2.68,2.68,0,0,0-2.273-1.082A2.651,2.651,0,0,0,64.215-9.16a5,5,0,0,0-.84,3v.836A5.107,5.107,0,0,0,64.2-2.238a2.662,2.662,0,0,0,2.27,1.121,2.652,2.652,0,0,0,2.25-1.059,5.079,5.079,0,0,0,.82-3.035Z" transform="translate(915 762.863)" fill="#12263f"/>
    <path id="Trazado_114571" data-name="Trazado 114571" d="M-51.477,0V-11.375h3.211a5.169,5.169,0,0,1,2.625.656,4.438,4.438,0,0,1,1.762,1.867A6.078,6.078,0,0,1-43.25-6.07v.727a6.1,6.1,0,0,1-.621,2.82A4.369,4.369,0,0,1-45.645-.664,5.5,5.5,0,0,1-48.328,0Zm1.5-10.148v8.922H-48.4a3.434,3.434,0,0,0,2.7-1.079,4.458,4.458,0,0,0,.965-3.073v-.665a4.529,4.529,0,0,0-.91-3.014,3.239,3.239,0,0,0-2.582-1.091ZM-39.375,0h-1.5V-11.375h1.5Zm6.094-5.07A7.053,7.053,0,0,1-36.09-6.434a2.6,2.6,0,0,1-.879-2,2.752,2.752,0,0,1,1.074-2.223,4.269,4.269,0,0,1,2.793-.879,4.66,4.66,0,0,1,2.09.453,3.436,3.436,0,0,1,1.422,1.25,3.2,3.2,0,0,1,.5,1.742h-1.508a2.08,2.08,0,0,0-.656-1.627A2.669,2.669,0,0,0-33.1-10.3a2.732,2.732,0,0,0-1.73.489,1.632,1.632,0,0,0-.621,1.358,1.468,1.468,0,0,0,.59,1.178,5.785,5.785,0,0,0,2.008.88,9.316,9.316,0,0,1,2.219.88A3.367,3.367,0,0,1-29.449-4.4a2.861,2.861,0,0,1,.387,1.508A2.658,2.658,0,0,1-30.141-.676a4.6,4.6,0,0,1-2.883.832,5.347,5.347,0,0,1-2.187-.449,3.681,3.681,0,0,1-1.566-1.23A3,3,0,0,1-37.328-3.3h1.508a1.959,1.959,0,0,0,.762,1.629,3.207,3.207,0,0,0,2.035.6,2.948,2.948,0,0,0,1.82-.484,1.573,1.573,0,0,0,.633-1.32,1.545,1.545,0,0,0-.586-1.293A6.755,6.755,0,0,0-33.281-5.07Zm14-5.078h-3.656V0H-24.43V-10.148h-3.648v-1.227h8.8ZM-13.422-4.6h-2.672V0H-17.6V-11.375h3.766a4.457,4.457,0,0,1,2.957.875A3.148,3.148,0,0,1-9.844-7.953,3.062,3.062,0,0,1-10.418-6.1a3.428,3.428,0,0,1-1.6,1.18L-9.344-.094V0h-1.609Zm-2.672-1.227h2.3a2.6,2.6,0,0,0,1.777-.579,1.959,1.959,0,0,0,.66-1.55,2.062,2.062,0,0,0-.629-1.62,2.663,2.663,0,0,0-1.816-.571h-2.3ZM-6.133,0h-1.5V-11.375h1.5Zm2.742,0V-11.375H.328a4.317,4.317,0,0,1,2.785.766,2.759,2.759,0,0,1,.934,2.266,2.31,2.31,0,0,1-.453,1.41,2.937,2.937,0,0,1-1.234.949A2.638,2.638,0,0,1,3.816-5a2.814,2.814,0,0,1,.535,1.723A3.042,3.042,0,0,1,3.359-.875,4.1,4.1,0,0,1,.555,0Zm1.5-5.32v4.094H.586A2.385,2.385,0,0,0,2.238-1.77a1.907,1.907,0,0,0,.605-1.5Q2.844-5.32.609-5.32Zm0-1.2H.375a2.375,2.375,0,0,0,1.574-.493,1.654,1.654,0,0,0,.59-1.339,1.626,1.626,0,0,0-.547-1.366,2.686,2.686,0,0,0-1.664-.427H-1.891Zm16.469-4.852v7.734a3.628,3.628,0,0,1-1.012,2.633A4.077,4.077,0,0,1,10.844.141l-.4.016A4.258,4.258,0,0,1,7.469-.852,3.6,3.6,0,0,1,6.344-3.625v-7.75H7.828v7.7a2.6,2.6,0,0,0,.68,1.918,2.612,2.612,0,0,0,1.938.684,2.63,2.63,0,0,0,1.949-.68,2.6,2.6,0,0,0,.676-1.914v-7.711ZM25.313-3.609A4.185,4.185,0,0,1,23.98-.824,4.365,4.365,0,0,1,21,.156a4.008,4.008,0,0,1-3.23-1.445,5.815,5.815,0,0,1-1.215-3.867V-6.25a6.481,6.481,0,0,1,.566-2.789,4.231,4.231,0,0,1,1.605-1.848,4.47,4.47,0,0,1,2.406-.645,4.11,4.11,0,0,1,2.906,1.012,4.235,4.235,0,0,1,1.273,2.8H23.8a3.268,3.268,0,0,0-.848-1.975,2.565,2.565,0,0,0-1.824-.611,2.684,2.684,0,0,0-2.254,1.063,4.882,4.882,0,0,0-.816,3.026v1.1a5.018,5.018,0,0,0,.773,2.948A2.5,2.5,0,0,0,21-1.07a2.886,2.886,0,0,0,1.918-.566A3.143,3.143,0,0,0,23.8-3.609ZM28.969,0h-1.5V-11.375h1.5ZM40.461-5.32A7.037,7.037,0,0,1,39.9-2.4,4.261,4.261,0,0,1,38.3-.5,4.385,4.385,0,0,1,35.9.156,4.347,4.347,0,0,1,33.516-.5,4.363,4.363,0,0,1,31.9-2.387a6.752,6.752,0,0,1-.59-2.832v-.82a6.953,6.953,0,0,1,.57-2.9A4.347,4.347,0,0,1,33.5-10.863a4.329,4.329,0,0,1,2.387-.668,4.41,4.41,0,0,1,2.41.66A4.253,4.253,0,0,1,39.9-8.957a7.071,7.071,0,0,1,.563,2.918Zm-1.492-.734a5.1,5.1,0,0,0-.812-3.105,2.68,2.68,0,0,0-2.273-1.082A2.651,2.651,0,0,0,33.645-9.16a5,5,0,0,0-.84,3v.836a5.107,5.107,0,0,0,.824,3.082A2.662,2.662,0,0,0,35.9-1.117a2.652,2.652,0,0,0,2.25-1.059,5.079,5.079,0,0,0,.82-3.035Zm-2.352-8.383h1.75l-2.094,2.3-1.164,0ZM51.453,0H49.945L44.219-8.766V0H42.711V-11.375h1.508l5.742,8.8v-8.8h1.492Z" transform="translate(1125 762.863)" fill="#12263f"/>
    <path id="Trazado_114572" data-name="Trazado 114572" d="M-54.652,0V-11.375h3.211a5.169,5.169,0,0,1,2.625.656,4.438,4.438,0,0,1,1.762,1.867,6.078,6.078,0,0,1,.629,2.781v.727a6.1,6.1,0,0,1-.621,2.82A4.369,4.369,0,0,1-48.82-.664,5.5,5.5,0,0,1-51.5,0Zm1.5-10.148v8.922h1.578a3.434,3.434,0,0,0,2.7-1.079,4.458,4.458,0,0,0,.965-3.073v-.665a4.529,4.529,0,0,0-.91-3.014A3.239,3.239,0,0,0-51.4-10.148ZM-42.551,0h-1.5V-11.375h1.5Zm6.094-5.07a7.053,7.053,0,0,1-2.809-1.363,2.6,2.6,0,0,1-.879-2,2.752,2.752,0,0,1,1.074-2.223,4.269,4.269,0,0,1,2.793-.879,4.66,4.66,0,0,1,2.09.453,3.436,3.436,0,0,1,1.422,1.25,3.2,3.2,0,0,1,.5,1.742H-33.77a2.08,2.08,0,0,0-.656-1.627,2.669,2.669,0,0,0-1.852-.592,2.732,2.732,0,0,0-1.73.489,1.632,1.632,0,0,0-.621,1.358,1.468,1.468,0,0,0,.59,1.178,5.785,5.785,0,0,0,2.008.88,9.316,9.316,0,0,1,2.219.88A3.367,3.367,0,0,1-32.625-4.4a2.861,2.861,0,0,1,.387,1.508A2.658,2.658,0,0,1-33.316-.676,4.6,4.6,0,0,1-36.2.156a5.347,5.347,0,0,1-2.187-.449,3.681,3.681,0,0,1-1.566-1.23A3,3,0,0,1-40.5-3.3H-39a1.959,1.959,0,0,0,.762,1.629,3.207,3.207,0,0,0,2.035.6,2.948,2.948,0,0,0,1.82-.484,1.573,1.573,0,0,0,.633-1.32,1.545,1.545,0,0,0-.586-1.293A6.755,6.755,0,0,0-36.457-5.07Zm7.641.617V0h-1.5V-11.375h4.2a4.215,4.215,0,0,1,2.926.953A3.231,3.231,0,0,1-22.137-7.9a3.189,3.189,0,0,1-1.035,2.551,4.4,4.4,0,0,1-2.965.895Zm0-1.227h2.7a2.7,2.7,0,0,0,1.844-.567,2.075,2.075,0,0,0,.641-1.64,2.143,2.143,0,0,0-.641-1.628,2.525,2.525,0,0,0-1.758-.634h-2.781Zm15.023.422h-4.93v4.031H-13V0h-7.227V-11.375h7.148v1.227h-5.648v3.664h4.93ZM-2.387,0H-3.895L-9.621-8.766V0h-1.508V-11.375h1.508l5.742,8.8v-8.8h1.492ZM3.629-5.07A7.053,7.053,0,0,1,.82-6.434a2.6,2.6,0,0,1-.879-2,2.751,2.751,0,0,1,1.074-2.223,4.269,4.269,0,0,1,2.793-.879,4.66,4.66,0,0,1,2.09.453A3.436,3.436,0,0,1,7.32-9.828a3.2,3.2,0,0,1,.5,1.742H6.316A2.08,2.08,0,0,0,5.66-9.713,2.669,2.669,0,0,0,3.809-10.3a2.732,2.732,0,0,0-1.73.489,1.632,1.632,0,0,0-.621,1.358,1.468,1.468,0,0,0,.59,1.178,5.785,5.785,0,0,0,2.008.88,9.316,9.316,0,0,1,2.219.88A3.367,3.367,0,0,1,7.461-4.4a2.861,2.861,0,0,1,.387,1.508A2.658,2.658,0,0,1,6.77-.676,4.6,4.6,0,0,1,3.887.156,5.347,5.347,0,0,1,1.7-.293,3.681,3.681,0,0,1,.133-1.523,3,3,0,0,1-.418-3.3H1.09a1.959,1.959,0,0,0,.762,1.629,3.207,3.207,0,0,0,2.035.6,2.948,2.948,0,0,0,1.82-.484,1.573,1.573,0,0,0,.633-1.32,1.545,1.545,0,0,0-.586-1.293A6.755,6.755,0,0,0,3.629-5.07ZM16.051-2.977H11.285L10.215,0H8.668l4.344-11.375h1.313L18.676,0H17.137ZM11.738-4.2h3.867l-1.937-5.32Zm16.75.594A4.185,4.185,0,0,1,27.156-.824a4.365,4.365,0,0,1-2.98.98,4.008,4.008,0,0,1-3.23-1.445A5.815,5.815,0,0,1,19.73-5.156V-6.25A6.481,6.481,0,0,1,20.3-9.039,4.231,4.231,0,0,1,21.9-10.887a4.47,4.47,0,0,1,2.406-.645,4.11,4.11,0,0,1,2.906,1.012,4.235,4.235,0,0,1,1.273,2.8H26.98a3.268,3.268,0,0,0-.848-1.975,2.565,2.565,0,0,0-1.824-.611,2.684,2.684,0,0,0-2.254,1.063,4.882,4.882,0,0,0-.816,3.026v1.1a5.018,5.018,0,0,0,.773,2.948A2.5,2.5,0,0,0,24.176-1.07a2.886,2.886,0,0,0,1.918-.566,3.143,3.143,0,0,0,.887-1.973ZM32.145,0h-1.5V-11.375h1.5ZM43.637-5.32A7.037,7.037,0,0,1,43.074-2.4,4.261,4.261,0,0,1,41.48-.5a4.385,4.385,0,0,1-2.406.656A4.347,4.347,0,0,1,36.691-.5a4.363,4.363,0,0,1-1.613-1.883,6.752,6.752,0,0,1-.59-2.832v-.82a6.953,6.953,0,0,1,.57-2.9,4.347,4.347,0,0,1,1.613-1.926,4.329,4.329,0,0,1,2.387-.668,4.41,4.41,0,0,1,2.41.66,4.253,4.253,0,0,1,1.605,1.914,7.071,7.071,0,0,1,.563,2.918Zm-1.492-.734a5.1,5.1,0,0,0-.812-3.105,2.68,2.68,0,0,0-2.273-1.082A2.651,2.651,0,0,0,36.82-9.16a5,5,0,0,0-.84,3v.836A5.107,5.107,0,0,0,36.8-2.238a2.662,2.662,0,0,0,2.27,1.121,2.652,2.652,0,0,0,2.25-1.059,5.079,5.079,0,0,0,.82-3.035Zm-2.352-8.383h1.75l-2.094,2.3-1.164,0ZM54.629,0H53.121L47.395-8.766V0H45.887V-11.375h1.508l5.742,8.8v-8.8h1.492Z" transform="translate(1325 762.863)" fill="#12263f"/>
  </g>
</svg>
