<svg xmlns="http://www.w3.org/2000/svg" xmlns:xlink="http://www.w3.org/1999/xlink" width="505" height="310" viewBox="0 0 505 310">
  <defs>
    <linearGradient id="linear-gradient" x1="-0.008" y1="-0.292" x2="0.661" y2="1.23" gradientUnits="objectBoundingBox">
      <stop offset="0" stop-color="#60acff"/>
      <stop offset="0.237" stop-color="#59b3ff"/>
      <stop offset="0.599" stop-color="#46c8ff"/>
      <stop offset="1" stop-color="#2ae8ff"/>
    </linearGradient>
    <linearGradient id="linear-gradient-2" x1="0.187" y1="-0.834" x2="0.634" y2="1.548" gradientUnits="objectBoundingBox">
      <stop offset="0" stop-color="#ff5b91"/>
      <stop offset="0.255" stop-color="#ff5398"/>
      <stop offset="0.644" stop-color="#ff3eab"/>
      <stop offset="1" stop-color="#ff25c3"/>
    </linearGradient>
    <linearGradient id="linear-gradient-3" x1="0.231" y1="-1.285" x2="0.626" y2="1.828" gradientUnits="objectBoundingBox">
      <stop offset="0" stop-color="#ffb23d"/>
      <stop offset="0.237" stop-color="#ffaa36"/>
      <stop offset="0.599" stop-color="#ff9523"/>
      <stop offset="1" stop-color="#ff7607"/>
    </linearGradient>
    <linearGradient id="linear-gradient-4" x1="0.254" y1="-1.737" x2="0.622" y2="2.108" gradientUnits="objectBoundingBox">
      <stop offset="0" stop-color="#ff6967"/>
      <stop offset="0.249" stop-color="#ff6169"/>
      <stop offset="0.627" stop-color="#ff4c70"/>
      <stop offset="1" stop-color="#ff317a"/>
    </linearGradient>
    <linearGradient id="linear-gradient-5" x1="0.267" y1="-2.174" x2="0.619" y2="2.379" gradientUnits="objectBoundingBox">
      <stop offset="0" stop-color="#ca60ff"/>
      <stop offset="0.205" stop-color="#c25aff"/>
      <stop offset="0.517" stop-color="#ad4aff"/>
      <stop offset="0.897" stop-color="#8a31ff"/>
      <stop offset="1" stop-color="#802aff"/>
    </linearGradient>
  </defs>
  <g id="Grupo_83890" data-name="Grupo 83890" transform="translate(-810 -703)">
    <path id="Trazado_114598" data-name="Trazado 114598" d="M0,0H505V310H0Z" transform="translate(810 703)" fill="#c3f8ff"/>
    <g id="Grupo_83533" data-name="Grupo 83533" transform="translate(877.76 572.753)">
      <path id="Trazado_114124" data-name="Trazado 114124" d="M218.727,197.76l-23.733-44.324a7.632,7.632,0,0,0-13.678.113c-5.328,10.325-13.666,25.772-23.742,44.132-3.009,5.483.749,12.341,6.767,12.341h47.576C217.9,210.022,221.663,203.242,218.727,197.76Z" transform="translate(-0.705)" fill="url(#linear-gradient)"/>
      <path id="Trazado_114125" data-name="Trazado 114125" d="M146.59,214.482c-5.827,10.536-12.014,21.668-18.375,33.076-3.058,5.483.7,12.392,6.738,12.392H239.985c5.98,0,9.745-6.779,6.81-12.262l-17.725-33.1a7.758,7.758,0,0,0-6.81-4.187H153.344A7.748,7.748,0,0,0,146.59,214.482Z" transform="translate(-0.531 2.816)" fill="url(#linear-gradient-2)"/>
      <path id="Trazado_114126" data-name="Trazado 114126" d="M117.072,264.869c-6.174,11.036-12.412,22.158-18.558,33.093-3.081,5.482.676,12.409,6.729,12.409H268.051c5.98,0,9.746-6.779,6.81-12.262l-17.725-33.1a7.76,7.76,0,0,0-6.811-4.188H123.806A7.746,7.746,0,0,0,117.072,264.869Z" transform="translate(-0.355 5.138)" fill="url(#linear-gradient-3)"/>
      <path id="Trazado_114127" data-name="Trazado 114127" d="M302.926,348.532l-17.725-33.1a7.76,7.76,0,0,0-6.81-4.187H94.018a7.752,7.752,0,0,0-6.725,4.034c-6.514,11.568-12.8,22.718-18.665,33.1-3.1,5.482.661,12.422,6.721,12.422H296.117C302.1,360.794,305.862,354.014,302.926,348.532Z" transform="translate(-0.179 7.461)" fill="url(#linear-gradient-4)"/>
      <path id="Trazado_114128" data-name="Trazado 114128" d="M57.348,365.688c-7.85,13.878-14.415,25.459-18.991,33.525-3.111,5.482.645,12.439,6.713,12.439H324.412c5.98,0,9.746-6.779,6.81-12.263l-17.957-33.538a7.759,7.759,0,0,0-6.81-4.187H64.068A7.761,7.761,0,0,0,57.348,365.688Z" transform="translate(0 9.783)" fill="url(#linear-gradient-5)"/>
    </g>
    <path id="Trazado_114599" data-name="Trazado 114599" d="M-22.586-11.375l2.922,8.25,2.906-8.25h3.078V0h-2.352V-3.109l.234-5.367L-18.867,0h-1.609l-3.062-8.469.234,5.359V0h-2.344V-11.375ZM-6.883,0a2.507,2.507,0,0,1-.227-.758A2.732,2.732,0,0,1-9.242.156,3,3,0,0,1-11.3-.562a2.312,2.312,0,0,1-.816-1.812,2.389,2.389,0,0,1,1-2.062,4.915,4.915,0,0,1,2.879-.727H-7.2v-.484a1.393,1.393,0,0,0-.3-.937,1.183,1.183,0,0,0-.949-.352,1.345,1.345,0,0,0-.895.273.929.929,0,0,0-.324.75H-11.93a2.268,2.268,0,0,1,.453-1.359,3,3,0,0,1,1.281-.98,4.669,4.669,0,0,1,1.859-.355,3.689,3.689,0,0,1,2.48.785,2.747,2.747,0,0,1,.918,2.207v3.664A4.041,4.041,0,0,0-4.6-.133V0ZM-8.75-1.57a1.945,1.945,0,0,0,.922-.223,1.462,1.462,0,0,0,.625-.6V-3.844h-.844q-1.7,0-1.8,1.172l-.008.133a.9.9,0,0,0,.3.7A1.153,1.153,0,0,0-8.75-1.57Zm7.625-6.883.07.977a2.951,2.951,0,0,1,2.43-1.133,2.453,2.453,0,0,1,2,.789,3.682,3.682,0,0,1,.672,2.359V0H1.789V-5.406a1.465,1.465,0,0,0-.312-1.043A1.4,1.4,0,0,0,.438-6.773a1.553,1.553,0,0,0-1.43.813V0H-3.25V-8.453ZM10.82-.859A2.831,2.831,0,0,1,8.508.156,2.67,2.67,0,0,1,6.434-.625,3.335,3.335,0,0,1,5.7-2.914V-8.453H7.961v5.467q0,1.322,1.2,1.322a1.63,1.63,0,0,0,1.578-.8V-8.453h2.266V0H10.883ZM19.609,0a2.507,2.507,0,0,1-.227-.758A2.732,2.732,0,0,1,17.25.156a3,3,0,0,1-2.059-.719,2.312,2.312,0,0,1-.816-1.812,2.389,2.389,0,0,1,1-2.062,4.915,4.915,0,0,1,2.879-.727h1.039v-.484a1.393,1.393,0,0,0-.3-.937,1.183,1.183,0,0,0-.949-.352,1.345,1.345,0,0,0-.895.273.929.929,0,0,0-.324.75H14.563a2.268,2.268,0,0,1,.453-1.359,3,3,0,0,1,1.281-.98,4.669,4.669,0,0,1,1.859-.355,3.689,3.689,0,0,1,2.48.785,2.747,2.747,0,0,1,.918,2.207v3.664a4.041,4.041,0,0,0,.336,1.82V0ZM17.742-1.57a1.945,1.945,0,0,0,.922-.223,1.462,1.462,0,0,0,.625-.6V-3.844h-.844q-1.7,0-1.8,1.172l-.008.133a.9.9,0,0,0,.3.7A1.153,1.153,0,0,0,17.742-1.57ZM25.672,0H23.406V-12h2.266Z" transform="translate(1063 762)" fill="#12263f"/>
    <path id="Trazado_114600" data-name="Trazado 114600" d="M-27.984-4.008V0h-2.344V-11.375h4.438a5.134,5.134,0,0,1,2.254.469,3.454,3.454,0,0,1,1.5,1.332,3.714,3.714,0,0,1,.523,1.965,3.266,3.266,0,0,1-1.145,2.637,4.767,4.767,0,0,1-3.168.965Zm0-1.9h2.094a2.059,2.059,0,0,0,1.418-.437,1.591,1.591,0,0,0,.488-1.25,1.876,1.876,0,0,0-.492-1.352,1.839,1.839,0,0,0-1.359-.531h-2.148Zm7.375,1.6a5.013,5.013,0,0,1,.484-2.242A3.546,3.546,0,0,1-18.73-8.07a4.069,4.069,0,0,1,2.113-.539,3.849,3.849,0,0,1,2.793,1.047,4.2,4.2,0,0,1,1.207,2.844l.016.578A4.418,4.418,0,0,1-13.687-1.02,3.775,3.775,0,0,1-16.6.156,3.793,3.793,0,0,1-19.52-1.016,4.5,4.5,0,0,1-20.609-4.2Zm2.258.16A3.16,3.16,0,0,0-17.9-2.3a1.5,1.5,0,0,0,1.3.638,1.5,1.5,0,0,0,1.281-.63,3.457,3.457,0,0,0,.461-2.015A3.128,3.128,0,0,0-15.32-6.14a1.5,1.5,0,0,0-1.3-.649,1.474,1.474,0,0,0-1.281.646A3.516,3.516,0,0,0-18.352-4.144ZM-8.828,0h-2.266V-12h2.266Zm4.3,0H-6.789V-8.453h2.258ZM-5.2-11.883h2.461L-4.9-9.461H-6.734ZM.117-10.531v2.078H1.563V-6.8H.117v4.219a1.007,1.007,0,0,0,.18.672.9.9,0,0,0,.688.2,3.6,3.6,0,0,0,.664-.055V-.047a4.648,4.648,0,0,1-1.367.2,2.156,2.156,0,0,1-2.422-2.4V-6.8H-3.375V-8.453h1.234v-2.078ZM5.2,0H2.938V-8.453H5.2ZM2.8-10.641a1.112,1.112,0,0,1,.34-.836A1.277,1.277,0,0,1,4.07-11.8a1.28,1.28,0,0,1,.922.328,1.105,1.105,0,0,1,.344.836,1.108,1.108,0,0,1-.348.844,1.283,1.283,0,0,1-.918.328A1.283,1.283,0,0,1,3.152-9.8,1.108,1.108,0,0,1,2.8-10.641Zm7.773,8.977a1.481,1.481,0,0,0,1.016-.344A1.2,1.2,0,0,0,12-2.922h2.117a2.9,2.9,0,0,1-.469,1.574A3.093,3.093,0,0,1,12.387-.238a3.949,3.949,0,0,1-1.77.395A3.67,3.67,0,0,1,7.758-1,4.56,4.56,0,0,1,6.711-4.18v-.148A4.508,4.508,0,0,1,7.75-7.445,3.627,3.627,0,0,1,10.6-8.609a3.555,3.555,0,0,1,2.543.9,3.2,3.2,0,0,1,.973,2.4H12a1.551,1.551,0,0,0-.406-1.072,1.354,1.354,0,0,0-1.031-.412,1.36,1.36,0,0,0-1.191.575,3.333,3.333,0,0,0-.4,1.866v.235a3.375,3.375,0,0,0,.4,1.878A1.377,1.377,0,0,0,10.578-1.664ZM20.3,0a2.507,2.507,0,0,1-.227-.758,2.732,2.732,0,0,1-2.133.914,3,3,0,0,1-2.059-.719,2.312,2.312,0,0,1-.816-1.812,2.389,2.389,0,0,1,1-2.062,4.915,4.915,0,0,1,2.879-.727h1.039v-.484a1.393,1.393,0,0,0-.3-.937,1.183,1.183,0,0,0-.949-.352,1.345,1.345,0,0,0-.895.273.929.929,0,0,0-.324.75H15.258a2.268,2.268,0,0,1,.453-1.359,3,3,0,0,1,1.281-.98,4.669,4.669,0,0,1,1.859-.355,3.689,3.689,0,0,1,2.48.785,2.747,2.747,0,0,1,.918,2.207v3.664a4.041,4.041,0,0,0,.336,1.82V0ZM18.438-1.57a1.945,1.945,0,0,0,.922-.223,1.462,1.462,0,0,0,.625-.6V-3.844h-.844q-1.7,0-1.8,1.172l-.008.133a.9.9,0,0,0,.3.7A1.153,1.153,0,0,0,18.438-1.57Zm10.125-.766a.727.727,0,0,0-.41-.652,4.659,4.659,0,0,0-1.316-.426Q23.82-4.047,23.82-5.977a2.323,2.323,0,0,1,.934-1.879A3.766,3.766,0,0,1,27.2-8.609a4.053,4.053,0,0,1,2.574.758,2.388,2.388,0,0,1,.965,1.969H28.477a1.092,1.092,0,0,0-.312-.8A1.322,1.322,0,0,0,27.188-7a1.351,1.351,0,0,0-.883.258.814.814,0,0,0-.312.656.7.7,0,0,0,.355.605,3.657,3.657,0,0,0,1.2.4,9.8,9.8,0,0,1,1.422.379A2.336,2.336,0,0,1,30.758-2.43a2.2,2.2,0,0,1-.992,1.871A4.28,4.28,0,0,1,27.2.156a4.47,4.47,0,0,1-1.887-.379,3.166,3.166,0,0,1-1.293-1.039,2.414,2.414,0,0,1-.469-1.426H25.7a1.179,1.179,0,0,0,.445.922,1.766,1.766,0,0,0,1.109.32,1.635,1.635,0,0,0,.98-.246A.766.766,0,0,0,28.563-2.336Z" transform="translate(1063 816)" fill="#12263f"/>
    <path id="Trazado_114601" data-name="Trazado 114601" d="M-53.3-4.008V0h-2.344V-11.375h4.438a5.134,5.134,0,0,1,2.254.469,3.454,3.454,0,0,1,1.5,1.332,3.714,3.714,0,0,1,.523,1.965,3.266,3.266,0,0,1-1.145,2.637,4.767,4.767,0,0,1-3.168.965Zm0-1.9h2.094a2.059,2.059,0,0,0,1.418-.437,1.591,1.591,0,0,0,.488-1.25,1.876,1.876,0,0,0-.492-1.352,1.839,1.839,0,0,0-1.359-.531H-53.3Zm12.578-.43a6.134,6.134,0,0,0-.812-.062,1.654,1.654,0,0,0-1.68.867V0h-2.258V-8.453h2.133l.063,1.008a2.092,2.092,0,0,1,1.883-1.164,2.366,2.366,0,0,1,.7.1ZM-40.27-4.3a5.013,5.013,0,0,1,.484-2.242A3.546,3.546,0,0,1-38.391-8.07a4.069,4.069,0,0,1,2.113-.539,3.849,3.849,0,0,1,2.793,1.047,4.2,4.2,0,0,1,1.207,2.844l.016.578A4.418,4.418,0,0,1-33.348-1.02,3.775,3.775,0,0,1-36.262.156,3.793,3.793,0,0,1-39.18-1.016,4.5,4.5,0,0,1-40.27-4.2Zm2.258.16A3.16,3.16,0,0,0-37.559-2.3a1.5,1.5,0,0,0,1.3.638,1.5,1.5,0,0,0,1.281-.63,3.457,3.457,0,0,0,.461-2.015A3.128,3.128,0,0,0-34.98-6.14a1.5,1.5,0,0,0-1.3-.649,1.474,1.474,0,0,0-1.281.646A3.516,3.516,0,0,0-38.012-4.144Zm10.656,2.48a1.481,1.481,0,0,0,1.016-.344,1.2,1.2,0,0,0,.406-.914h2.117a2.9,2.9,0,0,1-.469,1.574A3.093,3.093,0,0,1-25.547-.238a3.949,3.949,0,0,1-1.77.395A3.67,3.67,0,0,1-30.176-1,4.56,4.56,0,0,1-31.223-4.18v-.148a4.508,4.508,0,0,1,1.039-3.117,3.627,3.627,0,0,1,2.852-1.164,3.555,3.555,0,0,1,2.543.9,3.2,3.2,0,0,1,.973,2.4h-2.117a1.551,1.551,0,0,0-.406-1.072,1.354,1.354,0,0,0-1.031-.412,1.36,1.36,0,0,0-1.191.575,3.333,3.333,0,0,0-.4,1.866v.235a3.375,3.375,0,0,0,.4,1.878A1.377,1.377,0,0,0-27.355-1.664Zm8.719,1.82A4.15,4.15,0,0,1-21.664-.984a4.054,4.054,0,0,1-1.168-3.039v-.219A5.106,5.106,0,0,1-22.34-6.52a3.612,3.612,0,0,1,1.395-1.547,3.914,3.914,0,0,1,2.059-.543,3.508,3.508,0,0,1,2.73,1.094,4.444,4.444,0,0,1,1,3.1v.922h-5.383a2.1,2.1,0,0,0,.66,1.328,2,2,0,0,0,1.395.5,2.437,2.437,0,0,0,2.039-.945l1.109,1.242A3.389,3.389,0,0,1-16.715-.246,4.511,4.511,0,0,1-18.637.156Zm-.258-6.945a1.411,1.411,0,0,0-1.09.455,2.357,2.357,0,0,0-.535,1.3h3.141v-.181a1.681,1.681,0,0,0-.406-1.165A1.456,1.456,0,0,0-18.895-6.789Zm4.664,2.5a5.094,5.094,0,0,1,.887-3.148,2.877,2.877,0,0,1,2.426-1.172,2.589,2.589,0,0,1,2.039.922V-12h2.266V0H-8.652l-.109-.9A2.657,2.657,0,0,1-10.934.156,2.869,2.869,0,0,1-13.328-1.02,5.258,5.258,0,0,1-14.23-4.289Zm2.258.168A3.337,3.337,0,0,0-11.559-2.3a1.349,1.349,0,0,0,1.2.634,1.511,1.511,0,0,0,1.477-.884V-5.889a1.489,1.489,0,0,0-1.461-.884Q-11.973-6.773-11.973-4.121ZM-2.48,0H-4.746V-8.453H-2.48Zm-2.4-10.641a1.112,1.112,0,0,1,.34-.836,1.277,1.277,0,0,1,.926-.328,1.28,1.28,0,0,1,.922.328,1.105,1.105,0,0,1,.344.836A1.108,1.108,0,0,1-2.7-9.8a1.283,1.283,0,0,1-.918.328A1.283,1.283,0,0,1-4.531-9.8,1.108,1.108,0,0,1-4.879-10.641ZM1.5-8.453l.07.945A2.971,2.971,0,0,1,4-8.609,2.255,2.255,0,0,1,6.238-7.32,2.9,2.9,0,0,1,8.777-8.609a2.521,2.521,0,0,1,2.047.8A3.681,3.681,0,0,1,11.5-5.4V0H9.23V-5.391a1.61,1.61,0,0,0-.281-1.051,1.246,1.246,0,0,0-.992-.332A1.409,1.409,0,0,0,6.551-5.8L6.559,0H4.3V-5.383a1.59,1.59,0,0,0-.289-1.062,1.259,1.259,0,0,0-.984-.328,1.463,1.463,0,0,0-1.391.8V0H-.621V-8.453ZM15.613,0H13.348V-8.453h2.266Zm-2.4-10.641a1.112,1.112,0,0,1,.34-.836,1.277,1.277,0,0,1,.926-.328,1.28,1.28,0,0,1,.922.328,1.105,1.105,0,0,1,.344.836A1.108,1.108,0,0,1,15.4-9.8a1.283,1.283,0,0,1-.918.328,1.283,1.283,0,0,1-.918-.328A1.108,1.108,0,0,1,13.215-10.641ZM21.363.156A4.15,4.15,0,0,1,18.336-.984a4.054,4.054,0,0,1-1.168-3.039v-.219A5.106,5.106,0,0,1,17.66-6.52a3.612,3.612,0,0,1,1.395-1.547,3.914,3.914,0,0,1,2.059-.543,3.508,3.508,0,0,1,2.73,1.094,4.444,4.444,0,0,1,1,3.1v.922H19.457a2.1,2.1,0,0,0,.66,1.328,2,2,0,0,0,1.395.5,2.437,2.437,0,0,0,2.039-.945L24.66-1.367A3.389,3.389,0,0,1,23.285-.246,4.511,4.511,0,0,1,21.363.156Zm-.258-6.945a1.411,1.411,0,0,0-1.09.455,2.357,2.357,0,0,0-.535,1.3h3.141v-.181a1.681,1.681,0,0,0-.406-1.165A1.456,1.456,0,0,0,21.105-6.789ZM28.2-8.453l.07.977A2.951,2.951,0,0,1,30.7-8.609a2.453,2.453,0,0,1,2,.789,3.682,3.682,0,0,1,.672,2.359V0H31.113V-5.406A1.465,1.465,0,0,0,30.8-6.449a1.4,1.4,0,0,0-1.039-.324,1.553,1.553,0,0,0-1.43.813V0H26.074V-8.453Zm9.586-2.078v2.078H39.23V-6.8H37.785v4.219a1.007,1.007,0,0,0,.18.672.9.9,0,0,0,.688.2,3.6,3.6,0,0,0,.664-.055V-.047a4.648,4.648,0,0,1-1.367.2,2.156,2.156,0,0,1-2.422-2.4V-6.8H34.293V-8.453h1.234v-2.078ZM39.9-4.3a5.013,5.013,0,0,1,.484-2.242A3.546,3.546,0,0,1,41.781-8.07a4.069,4.069,0,0,1,2.113-.539,3.849,3.849,0,0,1,2.793,1.047,4.2,4.2,0,0,1,1.207,2.844l.016.578A4.418,4.418,0,0,1,46.824-1.02,3.775,3.775,0,0,1,43.91.156a3.793,3.793,0,0,1-2.918-1.172A4.5,4.5,0,0,1,39.9-4.2Zm2.258.16A3.16,3.16,0,0,0,42.613-2.3a1.5,1.5,0,0,0,1.3.638,1.5,1.5,0,0,0,1.281-.63,3.457,3.457,0,0,0,.461-2.015,3.128,3.128,0,0,0-.461-1.831,1.5,1.5,0,0,0-1.3-.649,1.474,1.474,0,0,0-1.281.646A3.516,3.516,0,0,0,42.16-4.144ZM53.879-2.336a.727.727,0,0,0-.41-.652,4.659,4.659,0,0,0-1.316-.426q-3.016-.633-3.016-2.562a2.323,2.323,0,0,1,.934-1.879,3.766,3.766,0,0,1,2.441-.754,4.053,4.053,0,0,1,2.574.758,2.388,2.388,0,0,1,.965,1.969H53.793a1.092,1.092,0,0,0-.312-.8A1.322,1.322,0,0,0,52.5-7a1.351,1.351,0,0,0-.883.258.814.814,0,0,0-.312.656.7.7,0,0,0,.355.605,3.657,3.657,0,0,0,1.2.4,9.8,9.8,0,0,1,1.422.379A2.336,2.336,0,0,1,56.074-2.43a2.2,2.2,0,0,1-.992,1.871A4.28,4.28,0,0,1,52.52.156a4.47,4.47,0,0,1-1.887-.379A3.166,3.166,0,0,1,49.34-1.262a2.414,2.414,0,0,1-.469-1.426h2.141a1.179,1.179,0,0,0,.445.922,1.766,1.766,0,0,0,1.109.32,1.635,1.635,0,0,0,.98-.246A.766.766,0,0,0,53.879-2.336Z" transform="translate(1063 870)" fill="#12263f"/>
    <path id="Trazado_114602" data-name="Trazado 114602" d="M-39.133,0h-2.344V-11.375h2.344Zm4.1-8.453.07.977a2.951,2.951,0,0,1,2.43-1.133,2.453,2.453,0,0,1,2,.789,3.682,3.682,0,0,1,.672,2.359V0h-2.258V-5.406a1.465,1.465,0,0,0-.312-1.043,1.4,1.4,0,0,0-1.039-.324,1.553,1.553,0,0,0-1.43.813V0h-2.258V-8.453ZM-23.57-2.336a.727.727,0,0,0-.41-.652A4.659,4.659,0,0,0-25.3-3.414q-3.016-.633-3.016-2.562a2.323,2.323,0,0,1,.934-1.879,3.766,3.766,0,0,1,2.441-.754,4.053,4.053,0,0,1,2.574.758A2.388,2.388,0,0,1-21.4-5.883h-2.258a1.092,1.092,0,0,0-.312-.8A1.322,1.322,0,0,0-24.945-7a1.351,1.351,0,0,0-.883.258.814.814,0,0,0-.312.656.7.7,0,0,0,.355.605,3.657,3.657,0,0,0,1.2.4,9.8,9.8,0,0,1,1.422.379A2.336,2.336,0,0,1-21.375-2.43a2.2,2.2,0,0,1-.992,1.871A4.28,4.28,0,0,1-24.93.156a4.47,4.47,0,0,1-1.887-.379,3.166,3.166,0,0,1-1.293-1.039,2.414,2.414,0,0,1-.469-1.426h2.141a1.179,1.179,0,0,0,.445.922,1.766,1.766,0,0,0,1.109.32,1.635,1.635,0,0,0,.98-.246A.766.766,0,0,0-23.57-2.336Zm6.352-8.2v2.078h1.445V-6.8h-1.445v4.219a1.007,1.007,0,0,0,.18.672.9.9,0,0,0,.688.2,3.6,3.6,0,0,0,.664-.055V-.047a4.648,4.648,0,0,1-1.367.2,2.156,2.156,0,0,1-2.422-2.4V-6.8h-1.234V-8.453h1.234v-2.078Zm7.453,4.2a6.134,6.134,0,0,0-.812-.062,1.654,1.654,0,0,0-1.68.867V0h-2.258V-8.453h2.133l.063,1.008a2.092,2.092,0,0,1,1.883-1.164,2.366,2.366,0,0,1,.7.1ZM-3.617-.859A2.831,2.831,0,0,1-5.93.156,2.67,2.67,0,0,1-8-.625a3.335,3.335,0,0,1-.73-2.289V-8.453h2.258v5.467q0,1.322,1.2,1.322a1.63,1.63,0,0,0,1.578-.8V-8.453H-1.43V0H-3.555Zm7.406-.8A1.481,1.481,0,0,0,4.8-2.008a1.2,1.2,0,0,0,.406-.914H7.328a2.9,2.9,0,0,1-.469,1.574A3.093,3.093,0,0,1,5.6-.238a3.949,3.949,0,0,1-1.77.395A3.67,3.67,0,0,1,.969-1,4.56,4.56,0,0,1-.078-4.18v-.148A4.508,4.508,0,0,1,.961-7.445,3.627,3.627,0,0,1,3.813-8.609a3.555,3.555,0,0,1,2.543.9,3.2,3.2,0,0,1,.973,2.4H5.211A1.551,1.551,0,0,0,4.8-6.377a1.354,1.354,0,0,0-1.031-.412,1.36,1.36,0,0,0-1.191.575,3.333,3.333,0,0,0-.4,1.866v.235a3.375,3.375,0,0,0,.4,1.878A1.377,1.377,0,0,0,3.789-1.664Zm7.531-8.867v2.078h1.445V-6.8H11.32v4.219a1.007,1.007,0,0,0,.18.672.9.9,0,0,0,.688.2,3.6,3.6,0,0,0,.664-.055V-.047a4.648,4.648,0,0,1-1.367.2,2.156,2.156,0,0,1-2.422-2.4V-6.8H7.828V-8.453H9.063v-2.078ZM16.406,0H14.141V-8.453h2.266Zm-2.4-10.641a1.112,1.112,0,0,1,.34-.836,1.277,1.277,0,0,1,.926-.328,1.28,1.28,0,0,1,.922.328,1.105,1.105,0,0,1,.344.836,1.108,1.108,0,0,1-.348.844,1.283,1.283,0,0,1-.918.328,1.283,1.283,0,0,1-.918-.328A1.108,1.108,0,0,1,14.008-10.641ZM21.43-2.758,23-8.453h2.359L22.508,0H20.352L17.5-8.453h2.359ZM25.883-4.3a5.013,5.013,0,0,1,.484-2.242A3.546,3.546,0,0,1,27.762-8.07a4.069,4.069,0,0,1,2.113-.539,3.849,3.849,0,0,1,2.793,1.047,4.2,4.2,0,0,1,1.207,2.844l.016.578A4.418,4.418,0,0,1,32.8-1.02,3.775,3.775,0,0,1,29.891.156a3.793,3.793,0,0,1-2.918-1.172A4.5,4.5,0,0,1,25.883-4.2Zm2.258.16A3.16,3.16,0,0,0,28.594-2.3a1.5,1.5,0,0,0,1.3.638,1.5,1.5,0,0,0,1.281-.63,3.457,3.457,0,0,0,.461-2.015,3.128,3.128,0,0,0-.461-1.831,1.5,1.5,0,0,0-1.3-.649,1.474,1.474,0,0,0-1.281.646A3.516,3.516,0,0,0,28.141-4.144ZM39.859-2.336a.727.727,0,0,0-.41-.652,4.659,4.659,0,0,0-1.316-.426q-3.016-.633-3.016-2.562a2.323,2.323,0,0,1,.934-1.879,3.766,3.766,0,0,1,2.441-.754,4.053,4.053,0,0,1,2.574.758,2.388,2.388,0,0,1,.965,1.969H39.773a1.092,1.092,0,0,0-.312-.8A1.322,1.322,0,0,0,38.484-7a1.351,1.351,0,0,0-.883.258.814.814,0,0,0-.312.656.7.7,0,0,0,.355.605,3.657,3.657,0,0,0,1.2.4,9.8,9.8,0,0,1,1.422.379A2.336,2.336,0,0,1,42.055-2.43a2.2,2.2,0,0,1-.992,1.871A4.28,4.28,0,0,1,38.5.156a4.47,4.47,0,0,1-1.887-.379A3.166,3.166,0,0,1,35.32-1.262a2.414,2.414,0,0,1-.469-1.426h2.141a1.179,1.179,0,0,0,.445.922,1.766,1.766,0,0,0,1.109.32,1.635,1.635,0,0,0,.98-.246A.766.766,0,0,0,39.859-2.336Z" transform="translate(1063 920)" fill="#12263f"/>
    <path id="Trazado_114603" data-name="Trazado 114603" d="M-29.121-4.164h-1.867V0h-2.344V-11.375h4.227a4.778,4.778,0,0,1,3.109.9A3.1,3.1,0,0,1-24.9-7.937,3.5,3.5,0,0,1-25.406-6a3.437,3.437,0,0,1-1.527,1.238l2.461,4.648V0h-2.516Zm-1.867-1.9H-29.1a1.936,1.936,0,0,0,1.367-.449,1.606,1.606,0,0,0,.484-1.238A1.719,1.719,0,0,0-27.7-9.016a1.9,1.9,0,0,0-1.4-.461h-1.883ZM-19.379.156A4.15,4.15,0,0,1-22.406-.984a4.054,4.054,0,0,1-1.168-3.039v-.219a5.106,5.106,0,0,1,.492-2.277,3.612,3.612,0,0,1,1.395-1.547,3.914,3.914,0,0,1,2.059-.543A3.508,3.508,0,0,1-16.9-7.516a4.444,4.444,0,0,1,1,3.1v.922h-5.383a2.1,2.1,0,0,0,.66,1.328,2,2,0,0,0,1.395.5,2.437,2.437,0,0,0,2.039-.945l1.109,1.242A3.389,3.389,0,0,1-17.457-.246,4.511,4.511,0,0,1-19.379.156Zm-.258-6.945a1.411,1.411,0,0,0-1.09.455,2.357,2.357,0,0,0-.535,1.3h3.141v-.181a1.681,1.681,0,0,0-.406-1.165A1.456,1.456,0,0,0-19.637-6.789Zm4.688,2.5a4.954,4.954,0,0,1,.926-3.133,3,3,0,0,1,2.5-1.187,2.631,2.631,0,0,1,2.164.953l.094-.8h2.047V-.281a3.613,3.613,0,0,1-.5,1.93A3.236,3.236,0,0,1-9.145,2.9a4.985,4.985,0,0,1-2.141.43A4.635,4.635,0,0,1-13.1,2.957,3.217,3.217,0,0,1-14.434,2l1-1.375a2.645,2.645,0,0,0,2.047.945,1.936,1.936,0,0,0,1.4-.48,1.8,1.8,0,0,0,.5-1.363V-.727a2.612,2.612,0,0,1-2.055.883,2.992,2.992,0,0,1-2.465-1.191,4.953,4.953,0,0,1-.941-3.16Zm2.258.168a3.085,3.085,0,0,0,.461,1.8,1.466,1.466,0,0,0,1.266.653,1.568,1.568,0,0,0,1.477-.775V-6a1.564,1.564,0,0,0-1.461-.775,1.476,1.476,0,0,0-1.277.665A3.477,3.477,0,0,0-12.691-4.121ZM-3.105,0H-5.371V-8.453h2.266ZM-5.5-10.641a1.112,1.112,0,0,1,.34-.836,1.277,1.277,0,0,1,.926-.328,1.28,1.28,0,0,1,.922.328,1.105,1.105,0,0,1,.344.836A1.108,1.108,0,0,1-3.32-9.8a1.283,1.283,0,0,1-.918.328A1.283,1.283,0,0,1-5.156-9.8,1.108,1.108,0,0,1-5.5-10.641Zm8.836,8.3a.727.727,0,0,0-.41-.652,4.659,4.659,0,0,0-1.316-.426Q-1.41-4.047-1.41-5.977A2.323,2.323,0,0,1-.477-7.855a3.766,3.766,0,0,1,2.441-.754,4.053,4.053,0,0,1,2.574.758A2.388,2.388,0,0,1,5.5-5.883H3.246a1.092,1.092,0,0,0-.312-.8A1.322,1.322,0,0,0,1.957-7a1.351,1.351,0,0,0-.883.258.814.814,0,0,0-.312.656.7.7,0,0,0,.355.605,3.657,3.657,0,0,0,1.2.4A9.8,9.8,0,0,1,3.738-4.7,2.336,2.336,0,0,1,5.527-2.43,2.2,2.2,0,0,1,4.535-.559,4.28,4.28,0,0,1,1.973.156,4.47,4.47,0,0,1,.086-.223,3.166,3.166,0,0,1-1.207-1.262a2.414,2.414,0,0,1-.469-1.426H.465a1.179,1.179,0,0,0,.445.922,1.766,1.766,0,0,0,1.109.32A1.635,1.635,0,0,0,3-1.691.766.766,0,0,0,3.332-2.336Zm6.352-8.2v2.078h1.445V-6.8H9.684v4.219a1.007,1.007,0,0,0,.18.672.9.9,0,0,0,.688.2,3.6,3.6,0,0,0,.664-.055V-.047a4.648,4.648,0,0,1-1.367.2,2.156,2.156,0,0,1-2.422-2.4V-6.8H6.191V-8.453H7.426v-2.078Zm7.453,4.2a6.134,6.134,0,0,0-.812-.062,1.654,1.654,0,0,0-1.68.867V0H12.387V-8.453H14.52l.063,1.008a2.092,2.092,0,0,1,1.883-1.164,2.366,2.366,0,0,1,.7.1ZM17.59-4.3a5.013,5.013,0,0,1,.484-2.242A3.546,3.546,0,0,1,19.469-8.07a4.069,4.069,0,0,1,2.113-.539,3.849,3.849,0,0,1,2.793,1.047,4.2,4.2,0,0,1,1.207,2.844l.016.578A4.418,4.418,0,0,1,24.512-1.02,3.775,3.775,0,0,1,21.6.156,3.793,3.793,0,0,1,18.68-1.016,4.5,4.5,0,0,1,17.59-4.2Zm2.258.16A3.16,3.16,0,0,0,20.3-2.3a1.5,1.5,0,0,0,1.3.638,1.5,1.5,0,0,0,1.281-.63,3.457,3.457,0,0,0,.461-2.015,3.128,3.128,0,0,0-.461-1.831,1.5,1.5,0,0,0-1.3-.649,1.474,1.474,0,0,0-1.281.646A3.516,3.516,0,0,0,19.848-4.144ZM31.566-2.336a.727.727,0,0,0-.41-.652,4.659,4.659,0,0,0-1.316-.426q-3.016-.633-3.016-2.562a2.323,2.323,0,0,1,.934-1.879A3.766,3.766,0,0,1,30.2-8.609a4.053,4.053,0,0,1,2.574.758,2.388,2.388,0,0,1,.965,1.969H31.48a1.092,1.092,0,0,0-.312-.8A1.322,1.322,0,0,0,30.191-7a1.351,1.351,0,0,0-.883.258A.814.814,0,0,0,29-6.086a.7.7,0,0,0,.355.605,3.657,3.657,0,0,0,1.2.4,9.8,9.8,0,0,1,1.422.379A2.336,2.336,0,0,1,33.762-2.43,2.2,2.2,0,0,1,32.77-.559a4.28,4.28,0,0,1-2.562.715A4.47,4.47,0,0,1,28.32-.223a3.166,3.166,0,0,1-1.293-1.039,2.414,2.414,0,0,1-.469-1.426H28.7a1.179,1.179,0,0,0,.445.922,1.766,1.766,0,0,0,1.109.32,1.635,1.635,0,0,0,.98-.246A.766.766,0,0,0,31.566-2.336Z" transform="translate(1063 974)" fill="#12263f"/>
  </g>
</svg>
