<svg xmlns="http://www.w3.org/2000/svg" width="400" height="317.318" viewBox="0 0 400 317.318">
  <g id="Grupo_83605" data-name="Grupo 83605" transform="translate(-1020 -2569.682)">
    <path id="Rectángulo_34022" data-name="Rectángulo 34022" d="M62,0H400a0,0,0,0,1,0,0V201a0,0,0,0,1,0,0H0a0,0,0,0,1,0,0V62A62,62,0,0,1,62,0Z" transform="translate(1020 2686)" fill="#e5dff9" opacity="0.6"/>
    <g id="Grupo_83603" data-name="Grupo 83603" transform="translate(1020 2503.047)">
      <g id="Background_Complete" data-name="Background Complete" transform="translate(34.756 66.635)">
        <g id="Grupo_83582" data-name="Grupo 83582" transform="translate(0 0)">
          <g id="Grupo_83558" data-name="Grupo 83558">
            <rect id="Rectángulo_33917" data-name="Rectángulo 33917" width="139.085" height="246.102" transform="translate(13.082 12.835)" fill="#f0f0f0"/>
            <rect id="Rectángulo_33918" data-name="Rectángulo 33918" width="139.085" height="3.797" transform="translate(13.082)" fill="#f5f5f5"/>
            <rect id="Rectángulo_33919" data-name="Rectángulo 33919" width="139.085" height="3.797" transform="translate(13.082)" fill="#f5f5f5"/>
            <rect id="Rectángulo_33920" data-name="Rectángulo 33920" width="139.085" height="3.797" transform="translate(191.421)" fill="#f5f5f5"/>
            <rect id="Rectángulo_33921" data-name="Rectángulo 33921" width="126.141" height="7.812" transform="translate(0 43.045)" fill="#fafafa"/>
            <rect id="Rectángulo_33922" data-name="Rectángulo 33922" width="26.027" height="7.812" transform="translate(152.168 50.857) rotate(180)" fill="#e0e0e0"/>
            <rect id="Rectángulo_33923" data-name="Rectángulo 33923" width="126.141" height="7.812" transform="translate(0 109.26)" fill="#fafafa"/>
            <rect id="Rectángulo_33924" data-name="Rectángulo 33924" width="26.027" height="7.812" transform="translate(152.168 117.072) rotate(180)" fill="#e0e0e0"/>
            <rect id="Rectángulo_33925" data-name="Rectángulo 33925" width="126.141" height="7.812" transform="translate(0 175.476)" fill="#fafafa"/>
            <rect id="Rectángulo_33926" data-name="Rectángulo 33926" width="26.027" height="7.812" transform="translate(152.168 183.287) rotate(180)" fill="#e0e0e0"/>
          </g>
          <g id="Grupo_83559" data-name="Grupo 83559" transform="translate(24.854 77.288)">
            <rect id="Rectángulo_33927" data-name="Rectángulo 33927" width="26.83" height="28.147" rx="3.376" transform="translate(0 3.826)" fill="#fff"/>
            <rect id="Rectángulo_33928" data-name="Rectángulo 33928" width="15.169" height="21.073" transform="translate(0 7.315)" fill="#f0f0f0"/>
            <rect id="Rectángulo_33929" data-name="Rectángulo 33929" width="14.38" height="3.826" rx="1.051" transform="translate(6.225)" fill="#e0e0e0"/>
          </g>
          <g id="Grupo_83560" data-name="Grupo 83560" transform="translate(61.388 77.288)">
            <rect id="Rectángulo_33930" data-name="Rectángulo 33930" width="26.83" height="28.147" rx="3.376" transform="translate(0 3.826)" fill="#fff"/>
            <rect id="Rectángulo_33931" data-name="Rectángulo 33931" width="15.169" height="21.073" transform="translate(0 7.315)" fill="#f0f0f0"/>
            <rect id="Rectángulo_33932" data-name="Rectángulo 33932" width="14.38" height="3.826" rx="1.051" transform="translate(6.225)" fill="#e0e0e0"/>
          </g>
          <g id="Grupo_83561" data-name="Grupo 83561" transform="translate(97.922 77.288)">
            <rect id="Rectángulo_33933" data-name="Rectángulo 33933" width="26.83" height="28.147" rx="3.376" transform="translate(0 3.826)" fill="#fff"/>
            <rect id="Rectángulo_33934" data-name="Rectángulo 33934" width="15.169" height="21.073" transform="translate(0 7.315)" fill="#f0f0f0"/>
            <rect id="Rectángulo_33935" data-name="Rectángulo 33935" width="14.38" height="3.826" rx="1.051" transform="translate(6.225)" fill="#e0e0e0"/>
          </g>
          <g id="Grupo_83562" data-name="Grupo 83562" transform="translate(23.348 24.817)">
            <rect id="Rectángulo_33936" data-name="Rectángulo 33936" width="12.674" height="15.037" transform="translate(1.424 3.19)" fill="#e0e0e0"/>
            <rect id="Rectángulo_33937" data-name="Rectángulo 33937" width="10.428" height="7.551" transform="translate(4.114 6.934)" fill="#f5f5f5"/>
            <rect id="Rectángulo_33938" data-name="Rectángulo 33938" width="15.522" height="4.351" rx="1.232" fill="#fafafa"/>
          </g>
          <g id="Grupo_83563" data-name="Grupo 83563" transform="translate(47.588 24.817)">
            <rect id="Rectángulo_33939" data-name="Rectángulo 33939" width="12.674" height="15.037" transform="translate(1.424 3.19)" fill="#e0e0e0"/>
            <rect id="Rectángulo_33940" data-name="Rectángulo 33940" width="10.428" height="7.551" transform="translate(4.114 6.934)" fill="#f5f5f5"/>
            <rect id="Rectángulo_33941" data-name="Rectángulo 33941" width="15.522" height="4.351" rx="1.232" fill="#fafafa"/>
          </g>
          <g id="Grupo_83564" data-name="Grupo 83564" transform="translate(71.829 24.817)">
            <rect id="Rectángulo_33942" data-name="Rectángulo 33942" width="12.674" height="15.037" transform="translate(1.424 3.19)" fill="#e0e0e0"/>
            <rect id="Rectángulo_33943" data-name="Rectángulo 33943" width="10.428" height="7.551" transform="translate(4.114 6.934)" fill="#f5f5f5"/>
            <rect id="Rectángulo_33944" data-name="Rectángulo 33944" width="15.522" height="4.351" rx="1.232" transform="translate(0)" fill="#fafafa"/>
          </g>
          <g id="Grupo_83565" data-name="Grupo 83565" transform="translate(96.07 24.817)">
            <rect id="Rectángulo_33945" data-name="Rectángulo 33945" width="12.674" height="15.037" transform="translate(1.424 3.19)" fill="#e0e0e0"/>
            <rect id="Rectángulo_33946" data-name="Rectángulo 33946" width="10.428" height="7.551" transform="translate(4.114 6.934)" fill="#f5f5f5"/>
            <rect id="Rectángulo_33947" data-name="Rectángulo 33947" width="15.522" height="4.351" rx="1.232" fill="#fafafa"/>
          </g>
          <g id="Grupo_83566" data-name="Grupo 83566" transform="translate(22.118 151.324)">
            <rect id="Rectángulo_33948" data-name="Rectángulo 33948" width="15.588" height="24.152" transform="translate(0 0)" fill="#fafafa"/>
            <rect id="Rectángulo_33949" data-name="Rectángulo 33949" width="11.726" height="12.461" transform="translate(0 5.845)" fill="#e6e6e6"/>
            <rect id="Rectángulo_33950" data-name="Rectángulo 33950" width="6.76" height="24.152" transform="translate(22.348 24.152) rotate(180)" fill="#e6e6e6"/>
          </g>
          <g id="Grupo_83567" data-name="Grupo 83567" transform="translate(46.949 151.324)">
            <rect id="Rectángulo_33951" data-name="Rectángulo 33951" width="15.588" height="24.152" transform="translate(0 0)" fill="#fafafa"/>
            <rect id="Rectángulo_33952" data-name="Rectángulo 33952" width="11.726" height="12.461" transform="translate(0 5.845)" fill="#e6e6e6"/>
            <rect id="Rectángulo_33953" data-name="Rectángulo 33953" width="6.76" height="24.152" transform="translate(22.348 24.152) rotate(180)" fill="#e6e6e6"/>
          </g>
          <g id="Grupo_83568" data-name="Grupo 83568" transform="translate(71.779 151.324)">
            <rect id="Rectángulo_33954" data-name="Rectángulo 33954" width="15.588" height="24.152" transform="translate(0 0)" fill="#fafafa"/>
            <rect id="Rectángulo_33955" data-name="Rectángulo 33955" width="11.726" height="12.461" transform="translate(0 5.845)" fill="#e6e6e6"/>
            <rect id="Rectángulo_33956" data-name="Rectángulo 33956" width="6.76" height="24.152" transform="translate(22.348 24.152) rotate(180)" fill="#e6e6e6"/>
          </g>
          <g id="Grupo_83569" data-name="Grupo 83569" transform="translate(96.61 151.324)">
            <rect id="Rectángulo_33957" data-name="Rectángulo 33957" width="15.588" height="24.152" transform="translate(0 0)" fill="#fafafa"/>
            <rect id="Rectángulo_33958" data-name="Rectángulo 33958" width="11.726" height="12.461" transform="translate(0 5.845)" fill="#e6e6e6"/>
            <rect id="Rectángulo_33959" data-name="Rectángulo 33959" width="6.76" height="24.152" transform="translate(22.348 24.152) rotate(180)" fill="#e6e6e6"/>
          </g>
          <g id="Grupo_83570" data-name="Grupo 83570" transform="translate(178.339 12.835)">
            <rect id="Rectángulo_33960" data-name="Rectángulo 33960" width="139.085" height="246.102" transform="translate(13.082)" fill="#f0f0f0"/>
            <rect id="Rectángulo_33961" data-name="Rectángulo 33961" width="126.141" height="7.812" transform="translate(0 30.21)" fill="#fafafa"/>
            <rect id="Rectángulo_33962" data-name="Rectángulo 33962" width="26.027" height="7.812" transform="translate(152.168 38.022) rotate(180)" fill="#e0e0e0"/>
            <rect id="Rectángulo_33963" data-name="Rectángulo 33963" width="126.141" height="7.812" transform="translate(0 96.425)" fill="#fafafa"/>
            <rect id="Rectángulo_33964" data-name="Rectángulo 33964" width="26.027" height="7.812" transform="translate(152.168 104.237) rotate(180)" fill="#e0e0e0"/>
            <rect id="Rectángulo_33965" data-name="Rectángulo 33965" width="126.141" height="7.812" transform="translate(0 162.64)" fill="#fafafa"/>
            <rect id="Rectángulo_33966" data-name="Rectángulo 33966" width="26.027" height="7.812" transform="translate(152.168 170.452) rotate(180)" fill="#e0e0e0"/>
          </g>
          <g id="Grupo_83571" data-name="Grupo 83571" transform="translate(198.889 156.133)">
            <rect id="Rectángulo_33967" data-name="Rectángulo 33967" width="30.335" height="15.017" rx="3.817" transform="translate(0 4.325)" fill="#fff"/>
            <rect id="Rectángulo_33968" data-name="Rectángulo 33968" width="17.15" height="7.019" transform="translate(0 8.271)" fill="#f0f0f0"/>
            <rect id="Rectángulo_33969" data-name="Rectángulo 33969" width="16.258" height="4.325" rx="1.189" transform="translate(7.038 0)" fill="#e0e0e0"/>
          </g>
          <g id="Grupo_83572" data-name="Grupo 83572" transform="translate(240.195 156.133)">
            <rect id="Rectángulo_33970" data-name="Rectángulo 33970" width="30.335" height="15.017" rx="3.817" transform="translate(0 4.325)" fill="#fff"/>
            <rect id="Rectángulo_33971" data-name="Rectángulo 33971" width="17.15" height="7.019" transform="translate(0 8.271)" fill="#f0f0f0"/>
            <rect id="Rectángulo_33972" data-name="Rectángulo 33972" width="16.258" height="4.325" rx="1.189" transform="translate(7.038 0)" fill="#e0e0e0"/>
          </g>
          <g id="Grupo_83573" data-name="Grupo 83573" transform="translate(281.501 156.133)">
            <rect id="Rectángulo_33973" data-name="Rectángulo 33973" width="30.335" height="15.017" rx="3.817" transform="translate(0 4.325)" fill="#fff"/>
            <rect id="Rectángulo_33974" data-name="Rectángulo 33974" width="17.15" height="7.019" transform="translate(0 8.271)" fill="#f0f0f0"/>
            <rect id="Rectángulo_33975" data-name="Rectángulo 33975" width="16.258" height="4.325" rx="1.189" transform="translate(7.038 0)" fill="#e0e0e0"/>
          </g>
          <g id="Grupo_83574" data-name="Grupo 83574" transform="translate(204.164 89.965)">
            <rect id="Rectángulo_33976" data-name="Rectángulo 33976" width="16.277" height="17.909" transform="translate(1.829 1.386)" fill="#e0e0e0"/>
            <rect id="Rectángulo_33977" data-name="Rectángulo 33977" width="13.392" height="8.992" transform="translate(5.283 5.845)" fill="#f5f5f5"/>
            <rect id="Rectángulo_33978" data-name="Rectángulo 33978" width="19.934" height="2.207" rx="0.987" fill="#fafafa"/>
          </g>
          <g id="Grupo_83575" data-name="Grupo 83575" transform="translate(235.295 89.965)">
            <rect id="Rectángulo_33979" data-name="Rectángulo 33979" width="16.277" height="17.909" transform="translate(1.829 1.386)" fill="#e0e0e0"/>
            <rect id="Rectángulo_33980" data-name="Rectángulo 33980" width="13.392" height="8.992" transform="translate(5.283 5.845)" fill="#f5f5f5"/>
            <rect id="Rectángulo_33981" data-name="Rectángulo 33981" width="19.934" height="2.207" rx="0.987" fill="#fafafa"/>
          </g>
          <g id="Grupo_83576" data-name="Grupo 83576" transform="translate(266.427 89.965)">
            <rect id="Rectángulo_33982" data-name="Rectángulo 33982" width="16.277" height="17.909" transform="translate(1.829 1.386)" fill="#e0e0e0"/>
            <rect id="Rectángulo_33983" data-name="Rectángulo 33983" width="13.392" height="8.992" transform="translate(5.283 5.845)" fill="#f5f5f5"/>
            <rect id="Rectángulo_33984" data-name="Rectángulo 33984" width="19.934" height="2.207" rx="0.987" fill="#fafafa"/>
          </g>
          <g id="Grupo_83577" data-name="Grupo 83577" transform="translate(297.559 89.965)">
            <rect id="Rectángulo_33985" data-name="Rectángulo 33985" width="16.277" height="17.909" transform="translate(1.829 1.386)" fill="#e0e0e0"/>
            <rect id="Rectángulo_33986" data-name="Rectángulo 33986" width="13.392" height="8.992" transform="translate(5.283 5.845)" fill="#f5f5f5"/>
            <rect id="Rectángulo_33987" data-name="Rectángulo 33987" width="19.934" height="2.207" rx="0.987" fill="#fafafa"/>
          </g>
          <g id="Grupo_83578" data-name="Grupo 83578" transform="translate(210.91 25.763)">
            <rect id="Rectángulo_33988" data-name="Rectángulo 33988" width="14.242" height="17.282" transform="translate(0 0)" fill="#fafafa"/>
            <rect id="Rectángulo_33989" data-name="Rectángulo 33989" width="10.713" height="8.917" transform="translate(0 4.182)" fill="#e6e6e6"/>
            <rect id="Rectángulo_33990" data-name="Rectángulo 33990" width="6.176" height="17.282" transform="translate(20.418 17.282) rotate(180)" fill="#e6e6e6"/>
          </g>
          <g id="Grupo_83579" data-name="Grupo 83579" transform="translate(233.596 25.763)">
            <rect id="Rectángulo_33991" data-name="Rectángulo 33991" width="14.242" height="17.282" transform="translate(0 0)" fill="#fafafa"/>
            <rect id="Rectángulo_33992" data-name="Rectángulo 33992" width="10.713" height="8.917" transform="translate(0 4.182)" fill="#e6e6e6"/>
            <rect id="Rectángulo_33993" data-name="Rectángulo 33993" width="6.176" height="17.282" transform="translate(20.418 17.282) rotate(180)" fill="#e6e6e6"/>
          </g>
          <g id="Grupo_83580" data-name="Grupo 83580" transform="translate(256.283 25.763)">
            <rect id="Rectángulo_33994" data-name="Rectángulo 33994" width="14.242" height="17.282" transform="translate(0 0)" fill="#fafafa"/>
            <rect id="Rectángulo_33995" data-name="Rectángulo 33995" width="10.713" height="8.917" transform="translate(0 4.182)" fill="#e6e6e6"/>
            <rect id="Rectángulo_33996" data-name="Rectángulo 33996" width="6.176" height="17.282" transform="translate(20.418 17.282) rotate(180)" fill="#e6e6e6"/>
          </g>
          <g id="Grupo_83581" data-name="Grupo 83581" transform="translate(278.969 25.763)">
            <rect id="Rectángulo_33997" data-name="Rectángulo 33997" width="14.242" height="17.282" transform="translate(0 0)" fill="#fafafa"/>
            <rect id="Rectángulo_33998" data-name="Rectángulo 33998" width="10.713" height="8.917" transform="translate(0 4.182)" fill="#e6e6e6"/>
            <rect id="Rectángulo_33999" data-name="Rectángulo 33999" width="6.176" height="17.282" transform="translate(20.418 17.282) rotate(180)" fill="#e6e6e6"/>
          </g>
        </g>
      </g>
      <g id="Shadow" transform="translate(45.24 344.209)">
        <ellipse id="_Path_" data-name="&lt;Path&gt;" cx="160.48" cy="9.372" rx="160.48" ry="9.372" fill="#cbbff4"/>
      </g>
      <g id="Character" transform="translate(134.036 81.677)">
        <g id="Grupo_83591" data-name="Grupo 83591" transform="translate(0)">
          <path id="Trazado_114131" data-name="Trazado 114131" d="M246.1,97.124c-8.084,3.807-8.868,14.859-5.834,24.252,2.187,6.766-3.549,7.122-4.9,16.646a21.951,21.951,0,0,0,25.586,24.609c14.274-2.643.452-32.15,5.692-42.436S254.792,93.03,246.1,97.124Z" transform="translate(-175.757 -89.24)" fill="#263238"/>
          <path id="Trazado_114132" data-name="Trazado 114132" d="M281.083,378.837l9.2.675c-1.27,7.321-2.47,18.88-2.47,18.88h-7.29S281.355,383.846,281.083,378.837Z" transform="translate(-183.576 -137.89)" fill="#ce7a63"/>
          <path id="Trazado_114133" data-name="Trazado 114133" d="M222.822,378.837l9.126.675c-2.048,7.321-4.475,18.88-4.475,18.88h-7.29S222.563,383.846,222.822,378.837Z" transform="translate(-173.179 -137.89)" fill="#ce7a63"/>
          <path id="Trazado_114134" data-name="Trazado 114134" d="M270.376,409.408c6.337,0,5.887-.1,9.456-.218,3.057-.108,3.759.272,6.213.218,2.05-.044,2.117-2,1.65-4.258-.179-.864-.448-1.876-.7-3.12a1.513,1.513,0,0,0-1.5-1.223h-7.413a1.748,1.748,0,0,0-1.4.707,10.674,10.674,0,0,1-7.366,4.138C265.869,406.109,267.85,409.408,270.376,409.408Z" transform="translate(-181.327 -141.676)" fill="#407bff"/>
          <path id="Trazado_114135" data-name="Trazado 114135" d="M210.248,409.408c6.337,0,5.887-.1,9.456-.218,3.057-.108,3.758.272,6.212.218,2.05-.044,2.117-2,1.65-4.258-.179-.864-.448-1.876-.7-3.12a1.514,1.514,0,0,0-1.5-1.223H217.95a1.745,1.745,0,0,0-1.4.707,10.678,10.678,0,0,1-7.366,4.138C205.741,406.109,207.722,409.408,210.248,409.408Z" transform="translate(-170.966 -141.676)" fill="#407bff"/>
          <path id="Trazado_114136" data-name="Trazado 114136" d="M232.586,206.1s-5.762,44.81-5.259,73.266c-2.185,26.714-5.7,77.812-5.7,77.812.1,1.365,7.31.82,8.587,0,0,0,16.5-34.48,13.814-77.812,18.328-45.194,17.234-73.266,17.234-73.266Z" transform="translate(-173.428 -108.125)" fill="#263238"/>
          <path id="Trazado_114137" data-name="Trazado 114137" d="M261.217,246.8c-1.422,5.836-3.249,12.309-5.585,19.351-.681-14.187-4.517-33.176-4.646-33.823Z" transform="translate(-178.486 -112.646)" opacity="0.2"/>
          <path id="Trazado_114138" data-name="Trazado 114138" d="M244.3,206.1s13.1,50.577,18.293,75.413c5.452,26.083,13.094,58.339,11.576,75.666,1.46.862,6.675.915,9.625,0,0,0,11.221-49.4-3.048-74.512,5.163-61.785-11.18-76.566-11.18-76.566Z" transform="translate(-177.334 -108.125)" fill="#263238"/>
          <g id="Grupo_83583" data-name="Grupo 83583" transform="translate(95.754 244.535)">
            <path id="Trazado_114139" data-name="Trazado 114139" d="M279.537,384.08a24.987,24.987,0,0,1-.437,3.558.719.719,0,0,0,.6.876c3.507.565,8.629-.253,10.255-.545a.761.761,0,0,0,.612-.612l.621-3.329a.717.717,0,0,0-.721-.856l-10.181.2A.762.762,0,0,0,279.537,384.08Z" transform="translate(-279.082 -383.172)" fill="#263238"/>
            <path id="Trazado_114140" data-name="Trazado 114140" d="M279.537,384.08a24.987,24.987,0,0,1-.437,3.558.719.719,0,0,0,.6.876c3.507.565,8.629-.253,10.255-.545a.761.761,0,0,0,.612-.612l.621-3.329a.717.717,0,0,0-.721-.856l-10.181.2A.762.762,0,0,0,279.537,384.08Z" transform="translate(-279.082 -383.172)" fill="#fff" opacity="0.1"/>
          </g>
          <g id="Grupo_83584" data-name="Grupo 83584" transform="translate(47.042 244.607)">
            <path id="Trazado_114141" data-name="Trazado 114141" d="M220.689,383.938c-.1.929-.275,2.582-.453,3.8a.713.713,0,0,0,.617.816,51.319,51.319,0,0,0,9.484-.105.766.766,0,0,0,.666-.565l.89-3.327a.718.718,0,0,0-.665-.912l-9.752-.389A.762.762,0,0,0,220.689,383.938Z" transform="translate(-220.228 -383.258)" fill="#263238"/>
            <path id="Trazado_114142" data-name="Trazado 114142" d="M220.689,383.938c-.1.929-.275,2.582-.453,3.8a.713.713,0,0,0,.617.816,51.319,51.319,0,0,0,9.484-.105.766.766,0,0,0,.666-.565l.89-3.327a.718.718,0,0,0-.665-.912l-9.752-.389A.762.762,0,0,0,220.689,383.938Z" transform="translate(-220.228 -383.258)" fill="#fff" opacity="0.1"/>
          </g>
          <path id="Trazado_114143" data-name="Trazado 114143" d="M180.971,162.984l1.6,1.986a2.973,2.973,0,0,0,2.487,1.1l4.478-.266a5.535,5.535,0,0,0,4.367-2.594l.589-.941c-2.432-3.477-7.621-5.442-7.621-5.442l-1.417-.724a2.471,2.471,0,0,0-3.368,1l-1.471,2.789A2.846,2.846,0,0,0,180.971,162.984Z" transform="translate(-166.309 -99.46)" fill="#ce7a63"/>
          <g id="Grupo_83585" data-name="Grupo 83585" transform="translate(0 30.426)">
            <rect id="Rectángulo_34000" data-name="Rectángulo 34000" width="10.2" height="11.934" rx="1.469" transform="matrix(0.978, -0.208, 0.208, 0.978, 14.815, 19.591)" fill="#407bff"/>
            <rect id="Rectángulo_34001" data-name="Rectángulo 34001" width="0.828" height="2.97" transform="translate(0 0.556) rotate(-42.159)" fill="#407bff"/>
            <rect id="Rectángulo_34002" data-name="Rectángulo 34002" width="5.395" height="0.828" transform="translate(26.225 12.55) rotate(-49.36)" fill="#407bff"/>
            <rect id="Rectángulo_34003" data-name="Rectángulo 34003" width="0.828" height="12.865" transform="translate(4.071 5.052) rotate(-42.16)" fill="#407bff"/>
            <rect id="Rectángulo_34004" data-name="Rectángulo 34004" width="0.828" height="10.926" transform="translate(0.767 14.827) rotate(-70.796)" fill="#407bff"/>
            <rect id="Rectángulo_34005" data-name="Rectángulo 34005" width="5.895" height="4.751" rx="0.651" transform="matrix(0.978, -0.208, 0.208, 0.978, 16.515, 17.233)" fill="#407bff"/>
            <path id="Rectángulo_34006" data-name="Rectángulo 34006" d="M.614,0H6.5a.615.615,0,0,1,.615.615V2.893a.614.614,0,0,1-.614.614H.614A.614.614,0,0,1,0,2.893V.614A.614.614,0,0,1,.614,0Z" transform="matrix(0.978, -0.208, 0.208, 0.978, 15.371, 14.788)" fill="#263238"/>
            <rect id="Rectángulo_34007" data-name="Rectángulo 34007" width="8.437" height="6.788" transform="translate(17.035 21.557) rotate(-11.99)" fill="#fff" opacity="0.8"/>
          </g>
          <g id="Grupo_83586" data-name="Grupo 83586" transform="translate(18.087 53.895)">
            <path id="Trazado_114144" data-name="Trazado 114144" d="M235.2,158.4c-.243.408-.391.627-.584.922l-.545.808-1.094,1.554q-1.1,1.53-2.279,2.978c-1.577,1.929-3.211,3.807-4.976,5.58a56,56,0,0,1-11.944,9.4c-1.123.647-2.279,1.254-3.472,1.8l-.9.4-.225.1-.123.053-.2.079c-.266.1-.533.2-.813.281a10.184,10.184,0,0,1-3.4.42,12.653,12.653,0,0,1-5.517-1.6,22.632,22.632,0,0,1-3.763-2.613,46.259,46.259,0,0,1-5.518-5.75c-.8-.99-1.586-1.98-2.348-2.986q-.569-.757-1.116-1.535c-.372-.543-.722-.992-1.146-1.653l10.556-5.745c.129.342.364.879.586,1.316.23.459.469.918.716,1.374.488.914,1.011,1.809,1.575,2.657a25.268,25.268,0,0,0,3.629,4.485,9.78,9.78,0,0,0,1.8,1.4,3.21,3.21,0,0,0,.992.415c.042.006.007,0,0,0s0,0,0,0l0,0,.074-.032.167-.076.668-.3c.889-.41,1.763-.872,2.624-1.37a39.079,39.079,0,0,0,4.93-3.509A47.375,47.375,0,0,0,218,162.943a49.413,49.413,0,0,0,3.885-4.925c.6-.861,1.168-1.737,1.708-2.621.271-.442.534-.883.776-1.329l.351-.66c.1-.2.243-.472.277-.564Z" transform="translate(-185.246 -152.844)" fill="#407bff"/>
            <path id="Trazado_114145" data-name="Trazado 114145" d="M235.2,158.4c-.243.408-.391.627-.584.922l-.545.808-1.094,1.554q-1.1,1.53-2.279,2.978c-1.577,1.929-3.211,3.807-4.976,5.58a56,56,0,0,1-11.944,9.4c-1.123.647-2.279,1.254-3.472,1.8l-.9.4-.225.1-.123.053-.2.079c-.266.1-.533.2-.813.281a10.184,10.184,0,0,1-3.4.42,12.653,12.653,0,0,1-5.517-1.6,22.632,22.632,0,0,1-3.763-2.613,46.259,46.259,0,0,1-5.518-5.75c-.8-.99-1.586-1.98-2.348-2.986q-.569-.757-1.116-1.535c-.372-.543-.722-.992-1.146-1.653l10.556-5.745c.129.342.364.879.586,1.316.23.459.469.918.716,1.374.488.914,1.011,1.809,1.575,2.657a25.268,25.268,0,0,0,3.629,4.485,9.78,9.78,0,0,0,1.8,1.4,3.21,3.21,0,0,0,.992.415c.042.006.007,0,0,0s0,0,0,0l0,0,.074-.032.167-.076.668-.3c.889-.41,1.763-.872,2.624-1.37a39.079,39.079,0,0,0,4.93-3.509A47.375,47.375,0,0,0,218,162.943a49.413,49.413,0,0,0,3.885-4.925c.6-.861,1.168-1.737,1.708-2.621.271-.442.534-.883.776-1.329l.351-.66c.1-.2.243-.472.277-.564Z" transform="translate(-185.246 -152.844)" fill="#fff" opacity="0.7"/>
          </g>
          <path id="Trazado_114146" data-name="Trazado 114146" d="M231.136,157.752a136.634,136.634,0,0,0,.224,14.719c.265,6.392,1.674,13.11,3.4,23.453,3.5,2.05,21.195,1.2,32.52-.263-.688-9.064.435-19.422,6.577-39.816a7.544,7.544,0,0,0-6.823-9.754c-1.355-.129-2.793-.237-4.268-.3a115.553,115.553,0,0,0-15.532,0c-1.688.144-3.437.344-5.11.563C236.086,147.137,231.321,152.082,231.136,157.752Z" transform="translate(-175.048 -97.687)" fill="#407bff"/>
          <path id="Trazado_114147" data-name="Trazado 114147" d="M234.654,208.3a153.709,153.709,0,0,0,34.343-.07.78.78,0,0,0,.6-1.09q-.42-.987-.833-1.976a.719.719,0,0,0-.737-.457,150.529,150.529,0,0,1-33.021,0,.741.741,0,0,0-.8.69q-.1,1.024-.206,2.048A.77.77,0,0,0,234.654,208.3Z" transform="translate(-175.559 -107.885)" fill="#407bff"/>
          <path id="Trazado_114148" data-name="Trazado 114148" d="M264.358,124.731c-1.352,5-3.012,14.154.236,17.489,0,0,.987,4.894-12.428,4.439-10.326-.35-3.1-4.439-3.1-4.439,5.672-1.33,5.836-5.465,5.155-9.348Z" transform="translate(-177.732 -94.105)" fill="#ce7a63"/>
          <g id="Grupo_83587" data-name="Grupo 83587" transform="translate(78.449 47.334)">
            <path id="Trazado_114149" data-name="Trazado 114149" d="M266.945,144.918s-5.881,5.224-7.63,17.814c-3.343,24.05,1.725,122.54,1.725,122.54s21.5-7.025,29.337-13.759c.367-6.736-12.648-68.8-11.5-86.609s3.348-33.329,1.05-36.681S266.945,144.918,266.945,144.918Z" transform="translate(-258.174 -144.918)" fill="#407bff"/>
            <path id="Trazado_114150" data-name="Trazado 114150" d="M266.945,144.918s-5.881,5.224-7.63,17.814c-3.343,24.05,1.725,122.54,1.725,122.54s21.5-7.025,29.337-13.759c.367-6.736-12.648-68.8-11.5-86.609s3.348-33.329,1.05-36.681S266.945,144.918,266.945,144.918Z" transform="translate(-258.174 -144.918)" fill="#fff" opacity="0.7"/>
          </g>
          <g id="Grupo_83588" data-name="Grupo 83588" transform="translate(49.007 47.834)">
            <path id="Trazado_114151" data-name="Trazado 114151" d="M245.351,145.521c-8.957,11.5-8.886,86.222-6.3,139.854-7.949-.958-16.448-17.1-16.448-17.1s8.639-56.888,6.977-81.023-1.428-32.532,2.451-36.985S245.351,145.521,245.351,145.521Z" transform="translate(-222.603 -145.521)" fill="#407bff"/>
            <path id="Trazado_114152" data-name="Trazado 114152" d="M245.351,145.521c-8.957,11.5-8.886,86.222-6.3,139.854-7.949-.958-16.448-17.1-16.448-17.1s8.639-56.888,6.977-81.023-1.428-32.532,2.451-36.985S245.351,145.521,245.351,145.521Z" transform="translate(-222.603 -145.521)" fill="#fff" opacity="0.7"/>
          </g>
          <path id="Trazado_114153" data-name="Trazado 114153" d="M266.2,144.347c-1.556,1.317-8.9,7.972-7.9,35.231.739-3.09,4.1-17.723,7.721-24.691a4.618,4.618,0,0,0-2.49-.844,5.08,5.08,0,0,1,3.154-.556c1.01-2.035,3.082-6.315,5.094-8.614C269.6,143.533,266.2,144.347,266.2,144.347Z" transform="translate(-179.73 -97.443)" fill="#fff"/>
          <path id="Trazado_114154" data-name="Trazado 114154" d="M241.766,179.754s1.595-25.391,6.862-34.442a8.2,8.2,0,0,0-5.985.934c-1.1,1.326-2.539,6.417-2.539,7.519a3.667,3.667,0,0,1,2.526.275,8.457,8.457,0,0,0-2.6.97C239.686,156.841,239.524,166.429,241.766,179.754Z" transform="translate(-176.564 -97.618)" fill="#fff"/>
          <g id="Grupo_83589" data-name="Grupo 83589" transform="translate(82.659 71.278)">
            <path id="Trazado_114155" data-name="Trazado 114155" d="M271.188,181.643h-7.107a.907.907,0,0,1-.816-1.074l.3-3.375a1.12,1.12,0,0,1,1-1.074h7.107a.907.907,0,0,1,.816,1.074l-.3,3.375A1.12,1.12,0,0,1,271.188,181.643Z" transform="translate(-263.26 -174.238)" fill="#fff"/>
            <path id="Trazado_114156" data-name="Trazado 114156" d="M267.406,181.643h-1.933l1.49-5.523H268.9Z" transform="translate(-263.641 -174.238)" fill="#407bff" opacity="0.1"/>
            <path id="Trazado_114157" data-name="Trazado 114157" d="M270.66,181.643h-1.933l1.49-5.523h1.933Z" transform="translate(-264.202 -174.238)" fill="#407bff" opacity="0.1"/>
            <path id="Trazado_114158" data-name="Trazado 114158" d="M268.8,176.311h0c-.348,0-.6-.206-.568-.457l.224-1.552a.674.674,0,0,1,.7-.456h0c.348,0,.6.205.567.456l-.223,1.552A.676.676,0,0,1,268.8,176.311Z" transform="translate(-264.117 -173.846)" fill="#407bff"/>
          </g>
          <path id="Trazado_114159" data-name="Trazado 114159" d="M261.809,128.744l-6,4.815a15.542,15.542,0,0,1,.274,2.757c2.152-.307,5.251-2.644,5.642-4.873A7.474,7.474,0,0,0,261.809,128.744Z" transform="translate(-179.317 -94.797)" opacity="0.2"/>
          <path id="Trazado_114160" data-name="Trazado 114160" d="M268.2,109.967c-1.516,8.069-1.986,11.507-6.592,15.378-6.926,5.822-16.442,2.742-17.352-5.484-.819-7.405,1.8-19.357,10.114-22.022A10.517,10.517,0,0,1,268.2,109.967Z" transform="translate(-177.302 -89.371)" fill="#ce7a63"/>
          <path id="Trazado_114161" data-name="Trazado 114161" d="M254.974,118.589c-2.119,0-3.89-2.154-3.971-4.857a5.7,5.7,0,0,1,1.025-3.53,3.538,3.538,0,0,1,2.743-1.559h.093c2.12,0,3.891,2.154,3.972,4.857h0c.081,2.741-1.611,5.024-3.769,5.089Zm-.109-9.533h-.081a3.13,3.13,0,0,0-2.421,1.389,5.283,5.283,0,0,0-.946,3.274c.075,2.515,1.732,4.506,3.638,4.455,1.931-.057,3.442-2.149,3.368-4.662h0C258.348,111.034,256.76,109.057,254.864,109.057Z" transform="translate(-178.489 -91.333)" fill="#fff"/>
          <path id="Trazado_114162" data-name="Trazado 114162" d="M250.96,114.361a.206.206,0,0,1-.123-.041c-.007,0-.629-.459-.94-.131a.207.207,0,0,1-.3-.284c.446-.476,1.146-.172,1.488.083a.207.207,0,0,1-.123.372Z" transform="translate(-178.237 -92.197)" fill="#fff"/>
          <path id="Trazado_114163" data-name="Trazado 114163" d="M244.55,117.674c-2.12,0-3.891-2.155-3.972-4.857-.081-2.742,1.61-5.025,3.768-5.089.031,0,.062,0,.093,0,2.12,0,3.891,2.155,3.972,4.857.082,2.741-1.609,5.025-3.769,5.089Zm-.11-9.533c-.027,0-.054,0-.081,0-1.93.057-3.442,2.149-3.367,4.662.074,2.478,1.662,4.455,3.557,4.455l.081,0c1.932-.057,3.442-2.149,3.367-4.662C247.923,110.118,246.335,108.141,244.439,108.141Z" transform="translate(-176.693 -91.175)" fill="#fff"/>
          <path id="Trazado_114164" data-name="Trazado 114164" d="M264.97,102.953c-3.306,7.367,2.194,10.775,3.012,13.073,1.153,6.392-13.4,19.082-9.083,38.956,6.279-11.109,14.928-10.584,15.839-18.054.938-7.7-2.922-11.6,1.173-18.944s5.545-16.108-1.645-17.473S264.97,102.953,264.97,102.953Z" transform="translate(-179.711 -89.881)" fill="#263238"/>
          <path id="Trazado_114165" data-name="Trazado 114165" d="M271.624,145.915a.206.206,0,0,1-.139-.36c4.18-3.789,4.5-8.741,4.836-13.984.221-3.442.45-7,1.817-10.34,2.405-5.88,4.4-14.136,2.1-18.056a4.134,4.134,0,0,0-3.221-2.085.206.206,0,0,1-.18-.23.2.2,0,0,1,.23-.18,4.53,4.53,0,0,1,3.528,2.286c2.373,4.046.485,12.169-2.073,18.422-1.341,3.277-1.568,6.8-1.787,10.21-.343,5.329-.667,10.362-4.971,14.264A.207.207,0,0,1,271.624,145.915Z" transform="translate(-182.007 -89.961)" fill="#263238"/>
          <path id="Trazado_114166" data-name="Trazado 114166" d="M264.925,101.69c-5.459.621-15.1-.026-17.319-2.827s.667-9.943,7.086-11.047c5.211-.9,8.342,5.517,8.342,5.517s4.967-2.451,9.295,3.2C276.274,101.69,267.654,107.534,264.925,101.69Z" transform="translate(-177.777 -87.729)" fill="#263238"/>
          <path id="Trazado_114167" data-name="Trazado 114167" d="M269.212,116.942a.169.169,0,0,1-.035,0l-9.142-1.571a.207.207,0,1,1,.07-.407l9.142,1.57a.207.207,0,0,1-.035.411Z" transform="translate(-180.016 -92.421)" fill="#fff"/>
          <path id="Trazado_114168" data-name="Trazado 114168" d="M257.432,113.967c-.1.683-.531,1.21-.968,1.178s-.713-.612-.614-1.295.531-1.21.968-1.178S257.531,113.284,257.432,113.967Z" transform="translate(-179.321 -92.027)" fill="#263238"/>
          <path id="Trazado_114169" data-name="Trazado 114169" d="M247.475,113.38c-.1.683-.532,1.21-.969,1.178s-.713-.612-.614-1.294.531-1.21.968-1.178S247.573,112.7,247.475,113.38Z" transform="translate(-177.605 -91.926)" fill="#263238"/>
          <path id="Trazado_114170" data-name="Trazado 114170" d="M246.973,112.025l-1.539-.591S246.075,112.776,246.973,112.025Z" transform="translate(-177.53 -91.814)" fill="#263238"/>
          <path id="Trazado_114171" data-name="Trazado 114171" d="M249.758,115.207a20.248,20.248,0,0,1-3.009,4.181,2.745,2.745,0,0,0,2.318.633Z" transform="translate(-177.756 -92.464)" fill="#ba4d3c"/>
          <path id="Trazado_114172" data-name="Trazado 114172" d="M253.487,123.944a6.518,6.518,0,0,1-1.136.016.184.184,0,0,1-.168-.215.217.217,0,0,1,.226-.186,5.724,5.724,0,0,0,4.623-1.8.193.193,0,1,1,.3.243A6.027,6.027,0,0,1,253.487,123.944Z" transform="translate(-178.692 -93.58)" fill="#263238"/>
          <path id="Trazado_114173" data-name="Trazado 114173" d="M271.429,121.413a5.645,5.645,0,0,1-3.772,2.566c-1.924.267-2.471-1.97-1.589-4.028.794-1.853,2.752-4.224,4.517-3.537C272.323,117.092,272.6,119.649,271.429,121.413Z" transform="translate(-181.015 -92.651)" fill="#ce7a63"/>
          <path id="Trazado_114174" data-name="Trazado 114174" d="M260.4,110.037a.364.364,0,0,1-.247-.18,2.947,2.947,0,0,0-2.325-1.556.368.368,0,0,1-.362-.406.437.437,0,0,1,.441-.385,3.681,3.681,0,0,1,2.961,1.933.411.411,0,0,1-.172.545A.42.42,0,0,1,260.4,110.037Z" transform="translate(-179.603 -91.138)" fill="#263238"/>
          <path id="Trazado_114175" data-name="Trazado 114175" d="M245.834,106.78a.371.371,0,0,1-.276-.089.4.4,0,0,1-.014-.563,4.217,4.217,0,0,1,3.415-1.521.367.367,0,0,1,.319.441.436.436,0,0,1-.464.354,3.37,3.37,0,0,0-2.692,1.233A.428.428,0,0,1,245.834,106.78Z" transform="translate(-177.53 -90.636)" fill="#263238"/>
          <path id="Trazado_114176" data-name="Trazado 114176" d="M256.931,112.613l-1.539-.592S256.033,113.363,256.931,112.613Z" transform="translate(-179.246 -91.915)" fill="#263238"/>
          <path id="Trazado_114177" data-name="Trazado 114177" d="M273.643,215.363l.586-2.484A2.969,2.969,0,0,1,276,210.812l4.152-1.7a5.536,5.536,0,0,1,5.06.451l.938.6c-.69,4.186-4.521,8.2-4.521,8.2l-.965,1.266a2.47,2.47,0,0,1-3.471.55l-2.533-1.88A2.846,2.846,0,0,1,273.643,215.363Z" transform="translate(-182.377 -108.575)" fill="#ce7a63"/>
          <g id="Grupo_83590" data-name="Grupo 83590" transform="translate(93.321 50.056)">
            <path id="Trazado_114178" data-name="Trazado 114178" d="M282.145,148.206c.435.286.68.469,1,.7l.875.656c.573.438,1.136.869,1.688,1.314q1.654,1.331,3.208,2.748a74.572,74.572,0,0,1,5.935,6,60.3,60.3,0,0,1,5.182,6.81c.775,1.218,1.526,2.457,2.194,3.759a40.413,40.413,0,0,1,1.873,3.993l.407,1.035.053.137.085.252.159.509c.083.333.168.678.216,1a11.178,11.178,0,0,1-.029,3.589,17.846,17.846,0,0,1-1.775,5.165,44.249,44.249,0,0,1-4.947,7.39c-1.751,2.2-3.586,4.244-5.449,6.239-.939.989-1.864,1.988-2.823,2.955l-1.45,1.446c-.5.492-.945.952-1.518,1.49l-7.654-9.264c.42-.289.95-.677,1.422-1.037l1.438-1.142c.951-.776,1.9-1.553,2.812-2.374a64.579,64.579,0,0,0,5.13-5.1,29.691,29.691,0,0,0,3.88-5.327,8.14,8.14,0,0,0,.832-2.108c.036-.221.014-.321.023-.271.005.007,0,.04.014.057a.191.191,0,0,0,.011.048l.012.022-.035-.089-.306-.768a36.733,36.733,0,0,0-7.564-11.317,48.5,48.5,0,0,0-5.229-4.75c-.931-.728-1.885-1.427-2.851-2.089-.484-.329-.967-.658-1.457-.956l-.728-.435c-.222-.128-.518-.3-.634-.349Z" transform="translate(-276.142 -148.206)" fill="#407bff"/>
            <path id="Trazado_114179" data-name="Trazado 114179" d="M282.145,148.206c.435.286.68.469,1,.7l.875.656c.573.438,1.136.869,1.688,1.314q1.654,1.331,3.208,2.748a74.572,74.572,0,0,1,5.935,6,60.3,60.3,0,0,1,5.182,6.81c.775,1.218,1.526,2.457,2.194,3.759a40.413,40.413,0,0,1,1.873,3.993l.407,1.035.053.137.085.252.159.509c.083.333.168.678.216,1a11.178,11.178,0,0,1-.029,3.589,17.846,17.846,0,0,1-1.775,5.165,44.249,44.249,0,0,1-4.947,7.39c-1.751,2.2-3.586,4.244-5.449,6.239-.939.989-1.864,1.988-2.823,2.955l-1.45,1.446c-.5.492-.945.952-1.518,1.49l-7.654-9.264c.42-.289.95-.677,1.422-1.037l1.438-1.142c.951-.776,1.9-1.553,2.812-2.374a64.579,64.579,0,0,0,5.13-5.1,29.691,29.691,0,0,0,3.88-5.327,8.14,8.14,0,0,0,.832-2.108c.036-.221.014-.321.023-.271.005.007,0,.04.014.057a.191.191,0,0,0,.011.048l.012.022-.035-.089-.306-.768a36.733,36.733,0,0,0-7.564-11.317,48.5,48.5,0,0,0-5.229-4.75c-.931-.728-1.885-1.427-2.851-2.089-.484-.329-.967-.658-1.457-.956l-.728-.435c-.222-.128-.518-.3-.634-.349Z" transform="translate(-276.142 -148.206)" fill="#fff" opacity="0.7"/>
          </g>
        </g>
      </g>
      <g id="Counter" transform="translate(86.44 167.708)">
        <g id="Grupo_83596" data-name="Grupo 83596" transform="translate(0 45.262)">
          <g id="Grupo_83594" data-name="Grupo 83594">
            <g id="Grupo_83592" data-name="Grupo 83592">
              <rect id="Rectángulo_34008" data-name="Rectángulo 34008" width="245.568" height="9.977" fill="#7e5ee3"/>
              <rect id="Rectángulo_34009" data-name="Rectángulo 34009" width="245.568" height="9.977" fill="#fff" opacity="0.6"/>
              <rect id="Rectángulo_34010" data-name="Rectángulo 34010" width="21.493" height="9.977" transform="translate(224.075)" fill="#407bff" opacity="0.3"/>
            </g>
            <g id="Grupo_83593" data-name="Grupo 83593" transform="translate(4.375 9.977)">
              <rect id="Rectángulo_34011" data-name="Rectángulo 34011" width="236.819" height="129.609" fill="#7e5ee3"/>
              <rect id="Rectángulo_34012" data-name="Rectángulo 34012" width="236.819" height="129.609" fill="#fff" opacity="0.5"/>
              <rect id="Rectángulo_34013" data-name="Rectángulo 34013" width="12.744" height="129.609" transform="translate(224.075)" fill="#b29eee"/>
              <rect id="Rectángulo_34014" data-name="Rectángulo 34014" width="236.819" height="3.286" fill="#407bff" opacity="0.3"/>
            </g>
          </g>
          <g id="Grupo_83595" data-name="Grupo 83595" transform="translate(78.513 36.589)">
            <circle id="Elipse_4786" data-name="Elipse 4786" cx="34.877" cy="34.877" r="34.877" transform="translate(3.367 0)" fill="#407bff" opacity="0.3"/>
            <circle id="Elipse_4787" data-name="Elipse 4787" cx="34.877" cy="34.877" r="34.877" transform="translate(1.122 0)" fill="#7e5ee3"/>
            <circle id="Elipse_4788" data-name="Elipse 4788" cx="34.877" cy="34.877" r="34.877" fill="#fff"/>
            <rect id="Rectángulo_34015" data-name="Rectángulo 34015" width="11.838" height="41.714" rx="2.851" transform="translate(28.958 14.02)" fill="#7e5ee3"/>
            <rect id="Rectángulo_34016" data-name="Rectángulo 34016" width="11.838" height="41.714" rx="2.851" transform="translate(55.734 28.958) rotate(90)" fill="#7e5ee3"/>
          </g>
        </g>
        <g id="Grupo_83600" data-name="Grupo 83600" transform="translate(166.734 0)">
          <g id="Grupo_83597" data-name="Grupo 83597">
            <path id="Trazado_114180" data-name="Trazado 114180" d="M371.093,231.415h-63.76l8.248-39.744h63.76Z" transform="translate(-307.333 -191.67)" fill="#407bff"/>
            <path id="Trazado_114181" data-name="Trazado 114181" d="M371.093,231.415h-63.76l8.248-39.744h63.76Z" transform="translate(-307.333 -191.67)" fill="#fff" opacity="0.3"/>
          </g>
          <path id="Trazado_114182" data-name="Trazado 114182" d="M361.306,224.186H334.552l3.55-17.1h26.754Z" transform="translate(-312.023 -194.326)" fill="#fff" opacity="0.3"/>
          <path id="Trazado_114183" data-name="Trazado 114183" d="M332.622,224.186h1.6l3.55-17.1h-1.6Z" transform="translate(-311.691 -194.326)" fill="#407bff" opacity="0.3"/>
          <path id="Trazado_114184" data-name="Trazado 114184" d="M350.787,218.346h-4.794l.719,17.665h4.794Z" transform="translate(-313.995 -196.267)" fill="#407bff" opacity="0.3"/>
          <path id="Trazado_114185" data-name="Trazado 114185" d="M308.409,231.415h-1.076l8.248-39.744h1.076Z" transform="translate(-307.333 -191.67)" fill="#fff" opacity="0.7"/>
          <g id="Grupo_83598" data-name="Grupo 83598" transform="translate(32.689 21.308)">
            <path id="Trazado_114186" data-name="Trazado 114186" d="M350.931,241.369h11.525l-4.1-23.955H346.828Z" transform="translate(-346.828 -217.414)" fill="#407bff"/>
            <path id="Trazado_114187" data-name="Trazado 114187" d="M350.931,241.369h11.525l-4.1-23.955H346.828Z" transform="translate(-346.828 -217.414)" fill="#fff" opacity="0.2"/>
          </g>
          <g id="Grupo_83599" data-name="Grupo 83599" transform="translate(31.655 21.308)">
            <path id="Trazado_114188" data-name="Trazado 114188" d="M349.681,241.369h1.034l-4.1-23.955h-1.034Z" transform="translate(-345.578 -217.414)" fill="#407bff"/>
            <path id="Trazado_114189" data-name="Trazado 114189" d="M349.681,241.369h1.034l-4.1-23.955h-1.034Z" transform="translate(-345.578 -217.414)" fill="#fff" opacity="0"/>
          </g>
          <path id="Trazado_114190" data-name="Trazado 114190" d="M348.761,244.707h-8.988l-2.355,1.365h11.342Z" transform="translate(-312.517 -200.809)" fill="#407bff"/>
        </g>
        <g id="Grupo_83602" data-name="Grupo 83602" transform="translate(67.12 24.46)">
          <rect id="Rectángulo_34017" data-name="Rectángulo 34017" width="15.243" height="16.731" transform="translate(2.69 4.072)" fill="#407bff"/>
          <path id="Trazado_114191" data-name="Trazado 114191" d="M197.667,225.294h9.09l2.69-4.072h-9.09Z" transform="translate(-188.823 -221.222)" fill="#407bff"/>
          <rect id="Rectángulo_34018" data-name="Rectángulo 34018" width="9.09" height="16.731" transform="translate(11.78 20.803) rotate(180)" fill="#fff" opacity="0.3"/>
          <rect id="Rectángulo_34019" data-name="Rectángulo 34019" width="11.985" height="7.444" transform="translate(5.948 9.982)" fill="#fff" opacity="0.3"/>
          <g id="Grupo_83601" data-name="Grupo 83601">
            <path id="Trazado_114192" data-name="Trazado 114192" d="M198.762,225.294h-9.09l-2.69-4.072h9.09Z" transform="translate(-186.982 -221.222)" fill="#407bff"/>
            <path id="Trazado_114193" data-name="Trazado 114193" d="M198.762,225.294h-9.09l-2.69-4.072h9.09Z" transform="translate(-186.982 -221.222)" fill="#fff" opacity="0.3"/>
          </g>
        </g>
      </g>
    </g>
  </g>
</svg>
